#N canvas 578 78 576 363 10;
#X obj 23 180 osc~;
#X obj 60 58 * 2;
#X obj 60 180 osc~;
#X obj 22 233 *~;
#X obj 59 234 *~;
#X obj 96 58 * 3;
#X obj 96 179 osc~;
#X obj 95 233 *~;
#X obj 129 177 osc~;
#X obj 128 231 *~;
#X obj 164 179 osc~;
#X obj 163 233 *~;
#X obj 129 56 * 4;
#X obj 164 58 * 5;
#X obj 200 178 osc~;
#X obj 199 232 *~;
#X obj 233 178 osc~;
#X obj 232 232 *~;
#X obj 266 176 osc~;
#X obj 265 230 *~;
#X obj 304 176 osc~;
#X obj 303 230 *~;
#X obj 200 57 * 6;
#X obj 233 57 * 7;
#X obj 266 55 * 8;
#X obj 304 55 * 9;
#X obj 23 299 outlet~;
#X obj 338 174 osc~;
#X obj 338 228 *~;
#X obj 375 172 osc~;
#X obj 375 227 *~;
#X obj 415 173 osc~;
#X obj 414 227 *~;
#X obj 339 53 * 10;
#X obj 375 52 * 11;
#X obj 415 52 * 12;
#X obj 23 58 * 1;
#X obj 23 16 inlet;
#X obj 37 83 r gate_a_harmonic_1;
#X obj 74 103 r gate_a_harmonic_2;
#X obj 110 124 r gate_a_harmonic_3;
#X obj 143 144 r gate_a_harmonic_4;
#X obj 178 82 r gate_a_harmonic_5;
#X obj 213 102 r gate_a_harmonic_6;
#X obj 247 121 r gate_a_harmonic_7;
#X obj 280 141 r gate_a_harmonic_8;
#X obj 318 80 r gate_a_harmonic_9;
#X obj 353 101 r gate_a_harmonic_10;
#X obj 390 120 r gate_a_harmonic_11;
#X obj 429 143 r gate_a_harmonic_12;
#X obj 429 205 Gain;
#X obj 390 207 Gain;
#X obj 353 207 Gain;
#X obj 318 208 Gain;
#X obj 280 209 Gain;
#X obj 247 210 Gain;
#X obj 214 209 Gain;
#X obj 178 209 Gain;
#X obj 143 209 Gain;
#X obj 110 209 Gain;
#X obj 74 211 Gain;
#X obj 37 211 Gain;
#X connect 0 0 3 0;
#X connect 1 0 2 0;
#X connect 2 0 4 0;
#X connect 3 0 26 0;
#X connect 4 0 26 0;
#X connect 5 0 6 0;
#X connect 6 0 7 0;
#X connect 7 0 26 0;
#X connect 8 0 9 0;
#X connect 9 0 26 0;
#X connect 10 0 11 0;
#X connect 11 0 26 0;
#X connect 12 0 8 0;
#X connect 13 0 10 0;
#X connect 14 0 15 0;
#X connect 15 0 26 0;
#X connect 16 0 17 0;
#X connect 17 0 26 0;
#X connect 18 0 19 0;
#X connect 19 0 26 0;
#X connect 20 0 21 0;
#X connect 21 0 26 0;
#X connect 22 0 14 0;
#X connect 23 0 16 0;
#X connect 24 0 18 0;
#X connect 25 0 20 0;
#X connect 27 0 28 0;
#X connect 28 0 26 0;
#X connect 29 0 30 0;
#X connect 30 0 26 0;
#X connect 31 0 32 0;
#X connect 32 0 26 0;
#X connect 33 0 27 0;
#X connect 34 0 29 0;
#X connect 35 0 31 0;
#X connect 36 0 0 0;
#X connect 37 0 5 0;
#X connect 37 0 12 0;
#X connect 37 0 13 0;
#X connect 37 0 22 0;
#X connect 37 0 23 0;
#X connect 37 0 24 0;
#X connect 37 0 25 0;
#X connect 37 0 33 0;
#X connect 37 0 34 0;
#X connect 37 0 35 0;
#X connect 37 0 1 0;
#X connect 37 0 36 0;
#X connect 38 0 61 0;
#X connect 39 0 60 0;
#X connect 40 0 59 0;
#X connect 41 0 58 0;
#X connect 42 0 57 0;
#X connect 43 0 56 0;
#X connect 44 0 55 0;
#X connect 45 0 54 0;
#X connect 46 0 53 0;
#X connect 47 0 52 0;
#X connect 48 0 51 0;
#X connect 49 0 50 0;
#X connect 50 0 32 1;
#X connect 51 0 30 1;
#X connect 52 0 28 1;
#X connect 53 0 21 1;
#X connect 54 0 19 1;
#X connect 55 0 17 1;
#X connect 56 0 15 1;
#X connect 57 0 11 1;
#X connect 58 0 9 1;
#X connect 59 0 7 1;
#X connect 60 0 4 1;
#X connect 61 0 3 1;
