#N canvas 404 69 736 649 10;
#X obj 245 155 until;
#X obj 245 110 bondo 2;
#X obj 296 131 * 2;
#X obj 296 151 - 1;
#X obj 245 248 *;
#X obj 245 225 * 12;
#X obj 245 295 t l;
#X obj 308 252 bng 15 250 50 0 empty empty empty 17 7 0 10 -262144
-1 -1;
#X obj 245 188 counter;
#X obj 245 272 list prepend;
#X obj 86 298 lister l;
#X obj 87 344 iter;
#X obj 20 299 lister l;
#X obj 20 345 iter;
#X obj 43 384 +;
#X obj 43 434 list prepend;
#X obj 43 456 t l;
#X obj 166 347 spigot;
#X obj 167 325 ==;
#X obj 170 295 list length;
#X obj 245 131 t f f b;
#X obj 95 368 bng 15 250 50 0 empty empty empty 17 7 0 10 -262144 -1
-1;
#X obj 85 263 bng 15 250 50 0 empty empty empty 17 7 0 10 -262144 -1
-1;
#X obj 146 369 bng 15 250 50 0 empty empty empty 17 7 0 10 -262144
-1 -1;
#X obj 395 360 metro;
#X obj 395 298 loadbang;
#X obj 395 319 tgl 15 0 empty empty empty 17 7 0 10 -262144 -1 -1 1
1;
#X obj 395 450 counter;
#X obj 394 524 list-idx;
#X obj 317 388 list length;
#X obj 311 513 lister l;
#X obj 393 473 bng 15 250 50 0 empty empty empty 17 7 0 10 -262144
-1 -1;
#X obj 317 412 - 1;
#X obj 384 108 inlet;
#X obj 428 107 inlet;
#X obj 469 106 inlet;
#X obj 513 105 inlet;
#X obj 588 105 inlet;
#X obj 384 208 s \$0-notes;
#X obj 428 187 s \$0-octaves;
#X obj 469 168 s \$0-direction;
#X obj 513 149 s \$0-time;
#X obj 588 151 s \$0-reset;
#X obj 344 108 inlet;
#X obj 344 227 s \$0-on;
#X obj 18 45 r \$0-notes;
#X obj 550 105 inlet;
#X obj 550 127 s \$0-priority;
#X obj 245 38 r \$0-octaves;
#X obj 284 87 r \$0-direction;
#X obj 395 380 alternate;
#X obj 421 313 r \$0-time;
#X obj 422 338 / 2;
#X obj 428 404 r \$0-on;
#X obj 395 427 spigot;
#X msg 516 426 0;
#X msg 405 568 127;
#X obj 405 548 bng 15 250 50 0 empty empty empty 17 7 0 10 -262144
-1 -1;
#X obj 374 571 f;
#X obj 475 476 bng 15 250 50 0 empty empty empty 17 7 0 10 -262144
-1 -1;
#N canvas 803 151 450 513 note_list_creator 0;
#X obj 69 173 list append;
#X obj 157 197 t l;
#X obj 93 49 == 0;
#X obj 82 72 tgl 15 0 empty empty empty 17 7 0 10 -262144 -1 -1 1 1
;
#X obj 48 94 spigot;
#X obj 58 261 ==;
#X obj 149 51 != 0;
#X obj 138 79 tgl 15 0 empty empty empty 17 7 0 10 -262144 -1 -1 0
1;
#X obj 101 98 spigot;
#X obj 32 200 lister l;
#X obj 29 237 iter;
#X obj 29 147 bng 15 250 50 0 empty empty empty 17 7 0 10 -262144 -1
-1;
#X obj 99 258 counter;
#X obj 83 288 spigot;
#X floatatom 142 310 5 0 0 0 - - -;
#X obj 61 337 list split;
#X obj 95 368 list split 1;
#X obj 68 399 list append;
#X obj 219 444 bng 15 250 50 0 empty empty empty 17 7 0 10 -262144
-1 -1;
#X obj 39 15 unpack f f;
#X obj 256 277 outlet;
#X obj 39 -8 inlet;
#X connect 0 0 1 0;
#X connect 0 0 9 1;
#X connect 0 0 20 0;
#X connect 1 0 0 1;
#X connect 2 0 3 0;
#X connect 3 0 4 1;
#X connect 4 0 5 1;
#X connect 4 0 11 0;
#X connect 5 0 13 1;
#X connect 6 0 7 0;
#X connect 7 0 8 1;
#X connect 8 0 0 0;
#X connect 9 0 10 0;
#X connect 9 0 15 0;
#X connect 10 0 5 0;
#X connect 10 0 12 0;
#X connect 11 0 12 2;
#X connect 11 0 9 0;
#X connect 12 0 13 0;
#X connect 13 0 14 0;
#X connect 14 0 15 1;
#X connect 15 0 17 0;
#X connect 15 1 16 0;
#X connect 16 1 17 1;
#X connect 17 0 0 1;
#X connect 17 0 9 1;
#X connect 17 0 18 0;
#X connect 18 0 0 0;
#X connect 19 0 8 0;
#X connect 19 0 4 0;
#X connect 19 1 6 0;
#X connect 19 1 2 0;
#X connect 21 0 19 0;
#X restore 18 120 pd note_list_creator;
#X obj 221 410 r \$0-reset;
#X obj 220 433 spigot;
#X obj 198 485 list length;
#X obj 198 507 != 0;
#X obj 350 490 spigot;
#X obj 298 451 bng 15 250 50 0 empty empty empty 17 7 0 10 -262144
-1 -1;
#X obj 484 406 spigot;
#X obj 493 450 t b f;
#X obj 374 600 pack f f;
#X obj 374 620 outlet;
#X obj 87 147 list-sort;
#X obj 145 120 r \$0-priority;
#X obj 120 167 list length;
#X obj 87 229 spigot;
#X obj 120 187 tgl 15 0 empty empty empty 17 7 0 10 -262144 -1 -1 126
126;
#X obj 40 229 spigot;
#X obj 73 190 == 0;
#X obj 73 210 tgl 15 0 empty empty empty 17 7 0 10 -262144 -1 -1 0
1;
#X obj 51 76 r \$0-on;
#X obj 18 98 spigot;
#X connect 0 0 8 0;
#X connect 1 0 20 0;
#X connect 1 1 2 0;
#X connect 2 0 3 0;
#X connect 3 0 4 1;
#X connect 4 0 9 0;
#X connect 5 0 4 0;
#X connect 6 0 9 1;
#X connect 7 0 9 1;
#X connect 8 0 5 0;
#X connect 9 0 6 0;
#X connect 9 0 19 0;
#X connect 9 0 17 0;
#X connect 10 0 23 0;
#X connect 10 0 11 0;
#X connect 11 0 14 1;
#X connect 11 0 21 0;
#X connect 12 0 13 0;
#X connect 12 0 63 0;
#X connect 13 0 14 0;
#X connect 14 0 15 0;
#X connect 15 0 16 0;
#X connect 15 0 29 0;
#X connect 15 0 30 1;
#X connect 16 0 15 1;
#X connect 17 0 10 1;
#X connect 18 0 17 1;
#X connect 19 0 18 0;
#X connect 20 0 0 0;
#X connect 20 1 18 1;
#X connect 20 2 8 2;
#X connect 20 2 7 0;
#X connect 21 0 12 0;
#X connect 22 0 10 0;
#X connect 23 0 15 1;
#X connect 23 0 62 0;
#X connect 24 0 50 0;
#X connect 25 0 26 0;
#X connect 26 0 24 0;
#X connect 27 0 28 1;
#X connect 27 0 31 0;
#X connect 28 0 57 0;
#X connect 28 0 58 0;
#X connect 29 0 32 0;
#X connect 30 0 28 0;
#X connect 31 0 65 0;
#X connect 32 0 27 4;
#X connect 33 0 38 0;
#X connect 34 0 39 0;
#X connect 35 0 40 0;
#X connect 36 0 41 0;
#X connect 37 0 42 0;
#X connect 43 0 44 0;
#X connect 45 0 80 0;
#X connect 46 0 47 0;
#X connect 48 0 1 0;
#X connect 49 0 1 1;
#X connect 50 0 54 0;
#X connect 50 1 67 0;
#X connect 51 0 52 0;
#X connect 52 0 24 1;
#X connect 53 0 54 1;
#X connect 53 0 67 1;
#X connect 54 0 27 0;
#X connect 55 0 68 0;
#X connect 56 0 69 1;
#X connect 57 0 56 0;
#X connect 58 0 69 0;
#X connect 59 0 58 0;
#X connect 60 0 73 0;
#X connect 60 0 71 0;
#X connect 60 0 76 0;
#X connect 61 0 62 1;
#X connect 62 0 66 0;
#X connect 63 0 64 0;
#X connect 64 0 65 1;
#X connect 65 0 30 0;
#X connect 66 0 27 2;
#X connect 67 0 55 0;
#X connect 68 0 59 0;
#X connect 68 1 69 1;
#X connect 69 0 70 0;
#X connect 71 0 74 0;
#X connect 72 0 71 1;
#X connect 73 0 75 0;
#X connect 73 0 77 0;
#X connect 74 0 12 1;
#X connect 74 0 22 0;
#X connect 75 0 74 1;
#X connect 76 0 12 1;
#X connect 76 0 22 0;
#X connect 77 0 78 0;
#X connect 78 0 76 1;
#X connect 79 0 80 1;
#X connect 80 0 60 0;
