#N canvas 549 16 655 668 10;
#X obj 48 127 list-idx;
#X obj 142 144 list-idx;
#X obj 47 332 f;
#X obj 48 312 bng 15 250 50 0 empty empty empty 17 7 0 10 -262144 -1
-1;
#X obj 366 118 list-idx;
#X obj 48 29 t b b b f f f;
#X obj 73 332 f;
#X obj 72 311 bng 15 250 50 0 empty empty empty 17 7 0 10 -262144 -1
-1;
#X obj 73 482 list-idx;
#X obj 73 441 bng 15 250 50 0 empty empty empty 17 7 0 10 -262144 -1
-1;
#X obj 73 532 +;
#X obj 364 171 * 12;
#X obj 365 145 + 1;
#X obj 366 82 lister l;
#X obj 411 60 r gate_controller_octaves;
#X obj 142 120 lister l;
#X obj 187 98 r gate_controller_values;
#X obj 48 105 lister l;
#X obj 92 77 r gate_controller_types;
#N canvas 254 188 450 300 key 0;
#X obj 33 51 route 0 1;
#X obj 33 72 bng 15 250 50 0 empty empty empty 17 7 0 10 -262144 -1
-1;
#X obj 58 72 bng 15 250 50 0 empty empty empty 17 7 0 10 -262144 -1
-1;
#X msg 58 90 0 2 3 5 7 8 10;
#X msg 33 113 0 2 4 5 7 9 11;
#X obj 131 165 lister l;
#X obj 165 101 bng 15 250 50 0 empty empty empty 17 7 0 10 -262144
-1 -1;
#X obj 202 164 f;
#X obj 105 54 bng 15 250 50 0 empty empty empty 17 7 0 10 -262144 -1
-1;
#X obj 131 188 iter;
#X obj 131 213 +;
#X obj 130 239 list prepend;
#X obj 214 241 t l;
#X obj 130 263 outlet;
#X obj 180 54 r gate_controller_key_note;
#X obj 33 26 r gate_controller_key_type;
#X connect 0 0 1 0;
#X connect 0 1 2 0;
#X connect 1 0 4 0;
#X connect 2 0 3 0;
#X connect 3 0 5 0;
#X connect 4 0 5 0;
#X connect 5 0 9 0;
#X connect 6 0 5 0;
#X connect 6 0 11 1;
#X connect 7 0 10 1;
#X connect 8 0 7 0;
#X connect 8 0 11 1;
#X connect 9 0 10 0;
#X connect 10 0 11 0;
#X connect 11 0 12 0;
#X connect 11 0 13 0;
#X connect 12 0 11 1;
#X connect 14 0 7 0;
#X connect 14 0 6 0;
#X connect 15 0 8 0;
#X connect 15 0 0 0;
#X restore 118 436 pd key;
#X obj 73 460 lister l;
#X obj 137 170 - 1;
#X obj 48 3 inlet;
#X obj 47 554 outlet;
#X obj 101 311 bng 15 250 50 0 empty empty empty 17 7 0 10 -262144
-1 -1;
#X obj 101 333 f;
#X obj 101 374 +;
#X obj 116 353 r gate_controller_tonic;
#N canvas 152 252 463 440 chord 0;
#X obj 42 32 r gate_controller_chord;
#X obj 253 8 inlet;
#X obj 253 180 list append;
#X obj 166 301 list-idx;
#X obj 93 150 t b b b b;
#X obj 62 239 +;
#X obj 91 239 +;
#X obj 118 239 +;
#X obj 144 239 f;
#X msg 118 184 2;
#X obj 253 222 list append;
#X msg 90 184 4;
#X msg 62 184 6;
#X obj 208 276 lister l;
#X obj 204 206 bng 15 250 50 0 empty empty empty 17 7 0 10 -262144
-1 -1;
#X obj 166 357 outlet;
#X obj 166 325 list prepend;
#X obj 265 325 t l;
#X obj 402 206 bng 15 250 50 0 empty empty empty 17 7 0 10 -262144
-1 -1;
#N canvas 381 299 394 209 add 0;
#X obj 91 22 inlet;
#X obj 91 127 outlet;
#X obj 91 52 iter;
#X obj 145 52 bng 15 250 50 0 empty empty empty 17 7 0 10 -262144 -1
-1;
#X obj 91 96 list prepend;
#X obj 177 96 t l;
#X obj 91 75 + 12;
#X connect 0 0 3 0;
#X connect 0 0 2 0;
#X connect 2 0 6 0;
#X connect 3 0 4 1;
#X connect 4 0 5 0;
#X connect 4 0 1 0;
#X connect 5 0 4 1;
#X connect 6 0 4 0;
#X restore 316 201 pd add;
#N canvas 825 300 379 209 add 0;
#X obj 91 22 inlet;
#X obj 91 127 outlet;
#X obj 91 52 iter;
#X obj 145 52 bng 15 250 50 0 empty empty empty 17 7 0 10 -262144 -1
-1;
#X obj 91 96 list prepend;
#X obj 177 96 t l;
#X obj 91 73 + 12;
#X connect 0 0 3 0;
#X connect 0 0 2 0;
#X connect 2 0 6 0;
#X connect 3 0 4 1;
#X connect 4 0 5 0;
#X connect 4 0 1 0;
#X connect 5 0 4 1;
#X connect 6 0 4 0;
#X restore 316 158 pd add;
#X obj 253 250 lister l;
#X obj 42 93 f;
#X obj 155 58 bng 15 250 50 0 empty empty empty 17 7 0 10 -262144 -1
-1;
#X obj 131 58 bng 15 250 50 0 empty empty empty 17 7 0 10 -262144 -1
-1;
#X floatatom 61 342 5 0 0 0 - - -;
#X connect 0 0 24 0;
#X connect 0 0 22 0;
#X connect 1 0 18 0;
#X connect 1 0 2 0;
#X connect 1 0 20 0;
#X connect 1 0 23 0;
#X connect 2 0 10 0;
#X connect 2 0 19 0;
#X connect 3 0 16 0;
#X connect 4 0 12 0;
#X connect 4 0 14 0;
#X connect 4 1 11 0;
#X connect 4 1 14 0;
#X connect 4 2 9 0;
#X connect 4 2 14 0;
#X connect 4 3 8 0;
#X connect 4 3 14 0;
#X connect 5 0 3 1;
#X connect 5 0 25 0;
#X connect 6 0 3 1;
#X connect 7 0 3 1;
#X connect 8 0 3 1;
#X connect 9 0 7 0;
#X connect 10 0 21 0;
#X connect 11 0 6 0;
#X connect 12 0 5 0;
#X connect 13 0 3 0;
#X connect 14 0 13 0;
#X connect 16 0 17 0;
#X connect 16 0 15 0;
#X connect 17 0 16 1;
#X connect 18 0 16 1;
#X connect 19 0 10 1;
#X connect 20 0 2 1;
#X connect 21 0 13 1;
#X connect 22 0 18 0;
#X connect 22 0 5 1;
#X connect 22 0 6 1;
#X connect 22 0 7 1;
#X connect 22 0 8 1;
#X connect 22 0 4 0;
#X connect 23 0 22 0;
#X connect 24 0 21 0;
#X restore 181 460 pd chord;
#X obj 131 309 bng 15 250 50 0 empty empty empty 17 7 0 10 -262144
-1 -1;
#X obj 136 329 f;
#X obj 136 524 list-idx;
#X obj 181 483 lister l;
#X obj 141 384 bng 15 250 50 0 empty empty empty 17 7 0 10 -262144
-1 -1;
#X obj 49 207 route 0 1 2 3 4 5 6;
#X obj 168 308 f;
#X obj 167 288 bng 15 250 50 0 empty empty empty 17 7 0 10 -262144
-1 -1;
#X obj 197 264 bng 15 250 50 0 empty empty empty 17 7 0 10 -262144
-1 -1;
#X obj 197 289 f;
#X obj 197 311 s gate_controller_tonic_p;
#X obj 242 247 bng 15 250 50 0 empty empty empty 17 7 0 10 -262144
-1 -1;
#X obj 243 265 f;
#X obj 243 287 s gate_controller_chord_p;
#X obj 168 332 s gate_controller_key_note_p;
#X obj 363 312 f;
#X obj 364 336 s gate_controller_key_type_p;
#N canvas 633 279 450 300 key_replication 0;
#X obj 39 16 inlet;
#X obj 39 74 list append;
#X obj 39 116 list append;
#N canvas 381 299 394 209 add 0;
#X obj 91 22 inlet;
#X obj 91 127 outlet;
#X obj 91 52 iter;
#X obj 145 52 bng 15 250 50 0 empty empty empty 17 7 0 10 -262144 -1
-1;
#X obj 91 96 list prepend;
#X obj 177 96 t l;
#X obj 91 75 + 12;
#X connect 0 0 3 0;
#X connect 0 0 2 0;
#X connect 2 0 6 0;
#X connect 3 0 4 1;
#X connect 4 0 5 0;
#X connect 4 0 1 0;
#X connect 5 0 4 1;
#X connect 6 0 4 0;
#X restore 102 95 pd add;
#N canvas 825 300 379 209 add 0;
#X obj 91 22 inlet;
#X obj 91 127 outlet;
#X obj 91 52 iter;
#X obj 145 52 bng 15 250 50 0 empty empty empty 17 7 0 10 -262144 -1
-1;
#X obj 91 96 list prepend;
#X obj 177 96 t l;
#X obj 91 73 + 12;
#X connect 0 0 3 0;
#X connect 0 0 2 0;
#X connect 2 0 6 0;
#X connect 3 0 4 1;
#X connect 4 0 5 0;
#X connect 4 0 1 0;
#X connect 5 0 4 1;
#X connect 6 0 4 0;
#X restore 102 52 pd add;
#X obj 39 140 outlet;
#X connect 0 0 4 0;
#X connect 0 0 1 0;
#X connect 1 0 2 0;
#X connect 1 0 3 0;
#X connect 2 0 5 0;
#X connect 3 0 2 1;
#X connect 4 0 1 1;
#X restore 475 496 pd key_replication;
#X obj 446 527 list-idx;
#X obj 429 466 + 9;
#X obj 393 463 + 7;
#X obj 380 528 list-idx;
#X obj 444 570 -;
#X obj 377 573 -;
#X obj 375 596 * -1;
#X obj 442 599 - 1;
#X obj 374 623 - 1;
#X obj 442 623 s gate_pitch_up;
#X obj 369 647 s gate_pitch_down;
#X obj 514 465 + 8;
#X obj 520 525 list-idx;
#X obj 408 419 t f f f;
#X connect 0 0 34 0;
#X connect 1 0 21 0;
#X connect 2 0 23 0;
#X connect 3 0 2 0;
#X connect 4 0 12 0;
#X connect 4 0 44 1;
#X connect 5 0 17 0;
#X connect 5 1 15 0;
#X connect 5 2 13 0;
#X connect 5 3 0 1;
#X connect 5 4 1 1;
#X connect 5 5 4 1;
#X connect 6 0 60 0;
#X connect 6 0 8 1;
#X connect 6 0 9 0;
#X connect 7 0 6 0;
#X connect 8 0 10 0;
#X connect 9 0 20 0;
#X connect 10 0 23 0;
#X connect 11 0 10 1;
#X connect 12 0 11 0;
#X connect 13 0 4 0;
#X connect 14 0 13 1;
#X connect 15 0 1 0;
#X connect 16 0 15 1;
#X connect 17 0 0 0;
#X connect 18 0 17 1;
#X connect 19 0 20 1;
#X connect 19 0 28 0;
#X connect 20 0 8 0;
#X connect 20 0 46 0;
#X connect 21 0 6 1;
#X connect 21 0 2 1;
#X connect 21 0 25 1;
#X connect 21 0 30 1;
#X connect 21 0 35 1;
#X connect 21 0 38 1;
#X connect 21 0 41 1;
#X connect 22 0 5 0;
#X connect 24 0 25 0;
#X connect 25 0 26 0;
#X connect 26 0 10 0;
#X connect 27 0 26 1;
#X connect 28 0 32 1;
#X connect 29 0 30 0;
#X connect 30 0 31 1;
#X connect 30 0 33 0;
#X connect 31 0 10 0;
#X connect 32 0 31 0;
#X connect 33 0 32 0;
#X connect 34 0 3 0;
#X connect 34 1 7 0;
#X connect 34 2 24 0;
#X connect 34 3 29 0;
#X connect 34 4 36 0;
#X connect 34 5 37 0;
#X connect 34 6 40 0;
#X connect 35 0 43 0;
#X connect 36 0 35 0;
#X connect 36 0 44 0;
#X connect 37 0 38 0;
#X connect 38 0 39 0;
#X connect 40 0 41 0;
#X connect 41 0 42 0;
#X connect 44 0 45 0;
#X connect 46 0 59 0;
#X connect 46 0 47 0;
#X connect 46 0 50 0;
#X connect 47 0 51 0;
#X connect 48 0 47 1;
#X connect 49 0 50 1;
#X connect 50 0 52 0;
#X connect 51 0 54 0;
#X connect 52 0 53 0;
#X connect 53 0 55 0;
#X connect 54 0 56 0;
#X connect 55 0 57 0;
#X connect 58 0 59 1;
#X connect 59 0 51 1;
#X connect 59 0 52 1;
#X connect 60 0 49 0;
#X connect 60 1 48 0;
#X connect 60 2 58 0;
