#N canvas 519 164 450 407 10;
#X obj 46 -29 sel 0;
#X obj 148 22 pack f f f f;
#X obj 46 38 pack f f;
#X msg 65 59 0 \$2;
#X obj 245 -3 f;
#X obj 195 -4 f;
#X obj 139 -6 f;
#X obj 46 -132 inlet;
#X obj 137 -32 inlet;
#X obj 195 -31 inlet;
#X obj 245 -31 inlet;
#X obj 292 -32 inlet;
#X obj 103 199 outlet;
#X msg 148 55 0 \, 1 \$2 \, \$4 \$3 \$2;
#X obj 102 91 vline~;
#X obj 103 175 unsig~ 1;
#X obj 107 -68 tgl 15 0 empty empty empty 17 7 0 10 -262144 -1 -1 1
1;
#X obj 107 -89 == 0;
#X obj 89 0 spigot;
#X obj 191 -117 loadbang;
#X msg 189 -97 1;
#X connect 0 0 2 0;
#X connect 0 1 18 0;
#X connect 1 0 13 0;
#X connect 2 0 3 0;
#X connect 3 0 14 0;
#X connect 4 0 1 3;
#X connect 5 0 1 2;
#X connect 6 0 1 1;
#X connect 7 0 0 0;
#X connect 7 0 17 0;
#X connect 8 0 6 0;
#X connect 9 0 5 0;
#X connect 10 0 4 0;
#X connect 11 0 2 1;
#X connect 13 0 14 0;
#X connect 14 0 15 0;
#X connect 15 0 12 0;
#X connect 16 0 18 1;
#X connect 17 0 16 0;
#X connect 18 0 1 0;
#X connect 19 0 20 0;
#X connect 20 0 16 0;
