#N canvas 299 37 450 300 10;
#X obj 9 -4 inlet;
#X obj 9 132 *;
#X obj 79 58 log;
#X msg 79 37 2;
#X obj 79 19 bng 15 250 50 0 empty empty empty 17 7 0 10 -262144 -1
-1;
#X obj 54 80 /;
#X obj 54 59 log;
#X obj 24 106 pow;
#X msg 24 81 5;
#X obj 24 64 bng 15 250 50 0 empty empty empty 17 7 0 10 -262144 -1
-1;
#X obj 9 155 outlet;
#X connect 0 0 4 0;
#X connect 0 0 6 0;
#X connect 0 0 9 0;
#X connect 0 0 1 0;
#X connect 1 0 10 0;
#X connect 2 0 5 1;
#X connect 3 0 2 0;
#X connect 4 0 3 0;
#X connect 5 0 7 1;
#X connect 6 0 5 0;
#X connect 7 0 1 1;
#X connect 8 0 7 0;
#X connect 9 0 8 0;
