#N canvas 213 169 1027 509 10;
#X declare -lib mrpeach;
#X declare -lib mrpeach;
#X declare -lib mrpeach;
#X declare -lib mrpeach;
#X obj 39 43 vradio 15 1 0 4 gate_switch_wave_form gate_switch_wave_form
waveform 0 -8 0 10 -262144 -1 -1 0;
#X text 58 41 Sawtooth;
#X text 58 72 Triangle;
#X text 59 86 Pulse;
#X obj 36 -1 tgl 15 0 dsp empty power 17 7 0 10 -262144 -1 -1 0 1;
#N canvas 530 46 531 620 synth 1;
#X obj 15 -43 tgl 15 0 empty empty empty 17 7 0 10 -262144 -1 -1 1
1;
#X msg 15 -22 \; pd dsp \$1;
#N canvas 322 1 777 702 control 0;
#X obj 9 11 r gate_ctl_type;
#X obj 9 32 moses 1;
#X obj 48 55 moses 25;
#X obj 93 77 moses 29;
#X obj 138 100 moses 35;
#X obj 183 122 moses 38;
#X obj 228 146 moses 44;
#X obj 273 169 moses 52;
#X obj 318 193 moses 58;
#X obj 363 215 moses 63;
#X obj 408 236 moses 71;
#X obj 453 257 moses 79;
#X msg 48 76 1;
#X obj 48 98 s rt;
#X msg 9 54 0;
#X obj 9 76 s rt;
#X obj 93 120 s rt;
#X obj 138 143 s rt;
#X obj 183 165 s rt;
#X obj 228 190 s rt;
#X msg 93 98 2;
#X msg 138 121 3;
#X msg 183 143 4;
#X msg 228 168 5;
#X obj 273 212 s rt;
#X obj 317 237 s rt;
#X obj 363 257 s rt;
#X obj 408 279 s rt;
#X obj 453 299 s rt;
#X msg 273 190 6;
#X msg 317 215 7;
#X msg 363 235 8;
#X msg 408 257 9;
#X msg 453 277 10;
#X obj 498 320 s rt;
#X msg 498 298 11;
#N canvas 769 175 463 341 old_distributor 0;
#X obj 133 50 ftos;
#X obj 117 138 mergefilename;
#X symbolatom 117 161 10 0 0 0 - - -;
#X obj 102 103 list;
#X obj 95 76 bondo 2;
#X obj 117 209 forward;
#X msg 116 183 send \$1;
#X obj 53 20 loadbang;
#X msg 71 50 gate_ctl_;
#X obj 128 14 r gate_ctl_type;
#X obj 10 162 r gate_ctl_value;
#X connect 0 0 4 1;
#X connect 1 0 2 0;
#X connect 2 0 6 0;
#X connect 3 0 1 0;
#X connect 4 0 3 0;
#X connect 4 1 3 1;
#X connect 6 0 5 0;
#X connect 7 0 8 0;
#X connect 8 0 4 0;
#X connect 9 0 0 0;
#X connect 10 0 5 0;
#X restore 132 11 pd old_distributor;
#X obj 12 148 r gate_ctl_value;
#X obj 69 196 r rt;
#X obj 12 238 list-rev;
#X obj 12 217 pack f f f;
#X obj 40 172 r gate_ctl_type;
#X obj 27 557 unpack f f;
#X obj 27 578 - 1;
#X obj 27 599 pack f f;
#X obj 42 469 unpack f f;
#X obj 42 511 pack f f;
#X obj 42 490 - 25;
#X obj 57 381 unpack f f;
#X obj 57 423 pack f f;
#X obj 57 402 - 29;
#X obj 73 292 unpack f f;
#X obj 73 334 pack f f;
#X obj 73 313 - 35;
#X obj 134 556 unpack f f;
#X obj 134 598 pack f f;
#X obj 143 469 unpack f f;
#X obj 143 511 pack f f;
#X obj 153 380 unpack f f;
#X obj 153 422 pack f f;
#X obj 161 292 unpack f f;
#X obj 161 334 pack f f;
#X obj 286 556 unpack f f;
#X obj 286 598 pack f f;
#X obj 287 469 unpack f f;
#X obj 287 511 pack f f;
#X obj 134 577 - 38;
#X obj 143 490 - 44;
#X obj 153 401 - 52;
#X obj 161 313 - 58;
#X obj 286 576 - 63;
#X obj 287 490 - 71;
#X obj 325 381 unpack f f;
#X obj 325 423 pack f f;
#X obj 325 402 - 79;
#X obj 291 672 s gate_midi_to_osc;
#X msg 12 645 /gate/synthesis_type \$1 \$2;
#X msg 27 621 /gate/harmonic \$1 \$2;
#X msg 42 533 /age/mix \$1 \$2;
#X msg 57 445 /gate/reverb \$1 \$2;
#X msg 73 356 /gate/delay \$1 \$2;
#X msg 161 356 /gate/envelope_assignment \$1 \$2;
#X msg 153 444 /gate/lfo_assignment \$1 \$2;
#X msg 143 533 /gate/property \$1 \$2;
#X msg 135 619 /gate/arpeggiator \$1 \$2;
#X msg 286 620 /gate/lfo \$1 \$2;
#X msg 287 533 /gate/lfo_envelope_assignment \$1 \$2;
#X msg 325 445 /gate/envelope \$1 \$2;
#X obj 498 278 moses 91;
#X msg 543 300 12;
#X obj 543 320 s rt;
#X obj 12 260 route 0 1 2 3 4 5 6 7 8 9 10 11 12;
#X obj 465 378 unpack f f;
#X obj 465 400 - 91;
#X obj 465 423 pack f f;
#X msg 465 444 /gate/suboscillator \$1 \$2;
#X connect 0 0 1 0;
#X connect 1 0 14 0;
#X connect 1 1 2 0;
#X connect 2 0 12 0;
#X connect 2 1 3 0;
#X connect 3 0 20 0;
#X connect 3 1 4 0;
#X connect 4 0 21 0;
#X connect 4 1 5 0;
#X connect 5 0 22 0;
#X connect 5 1 6 0;
#X connect 6 0 23 0;
#X connect 6 1 7 0;
#X connect 7 0 29 0;
#X connect 7 1 8 0;
#X connect 8 1 9 0;
#X connect 9 0 31 0;
#X connect 9 1 10 0;
#X connect 10 0 32 0;
#X connect 10 1 11 0;
#X connect 11 0 33 0;
#X connect 11 1 88 0;
#X connect 12 0 13 0;
#X connect 14 0 15 0;
#X connect 20 0 16 0;
#X connect 21 0 17 0;
#X connect 22 0 18 0;
#X connect 23 0 19 0;
#X connect 29 0 24 0;
#X connect 30 0 25 0;
#X connect 31 0 26 0;
#X connect 32 0 27 0;
#X connect 33 0 28 0;
#X connect 35 0 34 0;
#X connect 37 0 40 0;
#X connect 38 0 40 2;
#X connect 39 0 91 0;
#X connect 40 0 39 0;
#X connect 41 0 40 1;
#X connect 42 0 43 0;
#X connect 42 1 44 1;
#X connect 43 0 44 0;
#X connect 44 0 77 0;
#X connect 45 0 47 0;
#X connect 45 1 46 1;
#X connect 46 0 78 0;
#X connect 47 0 46 0;
#X connect 48 0 50 0;
#X connect 48 1 49 1;
#X connect 49 0 79 0;
#X connect 50 0 49 0;
#X connect 51 0 53 0;
#X connect 51 1 52 1;
#X connect 52 0 80 0;
#X connect 53 0 52 0;
#X connect 54 0 66 0;
#X connect 54 1 55 1;
#X connect 55 0 84 0;
#X connect 56 0 67 0;
#X connect 56 1 57 1;
#X connect 57 0 83 0;
#X connect 58 0 68 0;
#X connect 58 1 59 1;
#X connect 59 0 82 0;
#X connect 60 0 69 0;
#X connect 60 1 61 1;
#X connect 61 0 81 0;
#X connect 62 0 70 0;
#X connect 62 1 63 1;
#X connect 63 0 85 0;
#X connect 64 0 71 0;
#X connect 64 1 65 1;
#X connect 65 0 86 0;
#X connect 66 0 55 0;
#X connect 67 0 57 0;
#X connect 68 0 59 0;
#X connect 69 0 61 0;
#X connect 70 0 63 0;
#X connect 71 0 65 0;
#X connect 72 0 74 0;
#X connect 72 1 73 1;
#X connect 73 0 87 0;
#X connect 74 0 73 0;
#X connect 76 0 75 0;
#X connect 77 0 75 0;
#X connect 78 0 75 0;
#X connect 79 0 75 0;
#X connect 80 0 75 0;
#X connect 81 0 75 0;
#X connect 82 0 75 0;
#X connect 83 0 75 0;
#X connect 84 0 75 0;
#X connect 85 0 75 0;
#X connect 86 0 75 0;
#X connect 87 0 75 0;
#X connect 88 0 35 0;
#X connect 88 1 89 0;
#X connect 89 0 90 0;
#X connect 91 0 76 0;
#X connect 91 1 42 0;
#X connect 91 2 45 0;
#X connect 91 3 48 0;
#X connect 91 4 51 0;
#X connect 91 5 54 0;
#X connect 91 6 56 0;
#X connect 91 7 58 0;
#X connect 91 8 60 0;
#X connect 91 9 62 0;
#X connect 91 10 64 0;
#X connect 91 11 72 0;
#X connect 91 12 92 0;
#X connect 92 0 93 0;
#X connect 93 0 94 0;
#X connect 94 0 95 0;
#X connect 95 0 75 0;
#X restore 118 -74 pd control;
#X obj 187 -75 import mrpeach;
#X obj 15 -66 r dsp;
#N canvas 596 84 648 575 LFOs 0;
#X obj 383 173 osc~;
#X obj 230 2 loadbang;
#X obj 383 100 r gate_lfo_2_rate;
#X obj 431 182 r gate_lfo_2_depth;
#X obj 382 199 *~;
#X obj 382 222 *~ 0.5;
#X obj 381 248 +~;
#X obj 431 222 / 2;
#X obj 230 49 metro 1;
#X obj 230 27 tgl 15 0 empty empty empty 17 7 0 10 -262144 -1 -1 1
1;
#X obj 54 51 s gate_lfo_0;
#X obj 45 73 s gate_lfo_half_0;
#X obj 230 70 s \$0-lfo_tick;
#X obj 45 8 r \$0-lfo_tick;
#X obj 297 276 snapshot~;
#X obj 297 198 r \$0-lfo_tick;
#X obj 382 270 snapshot~;
#X obj 119 174 osc~;
#X obj 119 200 *~;
#X obj 119 223 *~ 0.5;
#X obj 118 249 +~;
#X obj 168 223 / 2;
#X obj 34 277 snapshot~;
#X obj 34 199 r \$0-lfo_tick;
#X obj 119 271 snapshot~;
#X obj 359 397 osc~;
#X obj 358 433 *~;
#X obj 358 456 *~ 0.5;
#X obj 357 482 +~;
#X obj 407 456 / 2;
#X obj 273 510 snapshot~;
#X obj 273 432 r \$0-lfo_tick;
#X obj 358 504 snapshot~;
#X obj 114 401 osc~;
#X obj 113 426 *~;
#X obj 113 449 *~ 0.5;
#X obj 112 475 +~;
#X obj 162 449 / 2;
#X obj 28 503 snapshot~;
#X obj 28 425 r \$0-lfo_tick;
#X obj 113 497 snapshot~;
#X obj 120 105 r gate_lfo_1_rate;
#X obj 168 183 r gate_lfo_1_depth;
#X obj 34 300 s gate_lfo_1;
#X obj 119 297 s gate_lfo_half_1;
#X obj 407 416 r gate_lfo_4_depth;
#X obj 359 335 r gate_lfo_4_rate;
#X obj 358 530 s gate_lfo_half_4;
#X obj 272 533 s gate_lfo_4;
#X obj 114 339 r gate_lfo_3_rate;
#X obj 162 409 r gate_lfo_3_depth;
#X obj 113 523 s gate_lfo_half_3;
#X obj 28 526 s gate_lfo_3;
#X msg 45 31 0;
#X obj 382 296 s gate_lfo_half_2;
#X obj 296 298 s gate_lfo_2;
#X obj 383 123 pow 3;
#X obj 383 149 / 400;
#X obj 119 129 pow 3;
#X obj 119 154 / 400;
#X obj 114 362 pow 3;
#X obj 114 381 / 400;
#X obj 359 357 pow 3;
#X obj 359 376 / 400;
#X connect 0 0 4 0;
#X connect 1 0 9 0;
#X connect 2 0 56 0;
#X connect 3 0 4 1;
#X connect 3 0 7 0;
#X connect 4 0 5 0;
#X connect 4 0 14 0;
#X connect 5 0 6 0;
#X connect 6 0 16 0;
#X connect 7 0 6 1;
#X connect 8 0 12 0;
#X connect 9 0 8 0;
#X connect 13 0 53 0;
#X connect 14 0 55 0;
#X connect 15 0 14 0;
#X connect 15 0 16 0;
#X connect 16 0 54 0;
#X connect 17 0 18 0;
#X connect 18 0 19 0;
#X connect 18 0 22 0;
#X connect 19 0 20 0;
#X connect 20 0 24 0;
#X connect 21 0 20 1;
#X connect 22 0 43 0;
#X connect 23 0 22 0;
#X connect 23 0 24 0;
#X connect 24 0 44 0;
#X connect 25 0 26 0;
#X connect 26 0 27 0;
#X connect 26 0 30 0;
#X connect 27 0 28 0;
#X connect 28 0 32 0;
#X connect 29 0 28 1;
#X connect 30 0 48 0;
#X connect 31 0 30 0;
#X connect 31 0 32 0;
#X connect 32 0 47 0;
#X connect 33 0 34 0;
#X connect 34 0 35 0;
#X connect 34 0 38 0;
#X connect 35 0 36 0;
#X connect 36 0 40 0;
#X connect 37 0 36 1;
#X connect 38 0 52 0;
#X connect 39 0 38 0;
#X connect 39 0 40 0;
#X connect 40 0 51 0;
#X connect 41 0 58 0;
#X connect 42 0 18 1;
#X connect 42 0 21 0;
#X connect 45 0 26 1;
#X connect 45 0 29 0;
#X connect 46 0 62 0;
#X connect 49 0 60 0;
#X connect 50 0 34 1;
#X connect 50 0 37 0;
#X connect 53 0 10 0;
#X connect 53 0 11 0;
#X connect 56 0 57 0;
#X connect 57 0 0 0;
#X connect 58 0 59 0;
#X connect 59 0 17 0;
#X connect 60 0 61 0;
#X connect 61 0 33 0;
#X connect 62 0 63 0;
#X connect 63 0 25 0;
#X restore 385 -74 pd LFOs;
#X obj 76 477 dac~;
#N canvas 390 25 607 225 reverb 0;
#X msg 1 -108 bypass \$1;
#X obj -1 -129 expr if($i1==1 \, 0 \, 1);
#X obj 62 -24 freeverb~;
#X obj 64 -100 inlet~;
#X obj 107 -101 inlet~;
#X obj 61 8 outlet~;
#X obj 114 9 outlet~;
#X obj -2 -153 r gate_enable_reverb;
#X obj 166 -135 r gate_reverb_roomsize;
#X msg 166 -113 roomsize \$1;
#X obj 167 -91 r gate_reverb_width;
#X msg 166 -70 width \$1;
#X obj 310 -88 r gate_reverb_wet;
#X msg 309 -67 wet \$1;
#X obj 426 -85 r gate_reverb_dry;
#X msg 425 -64 dry \$1;
#X msg 306 -114 damping \$1;
#X obj 307 -135 r gate_reverb_damping;
#X connect 0 0 2 0;
#X connect 1 0 0 0;
#X connect 2 0 5 0;
#X connect 2 1 6 0;
#X connect 3 0 2 0;
#X connect 4 0 2 1;
#X connect 7 0 1 0;
#X connect 8 0 9 0;
#X connect 9 0 2 0;
#X connect 10 0 11 0;
#X connect 11 0 2 0;
#X connect 12 0 13 0;
#X connect 13 0 2 0;
#X connect 14 0 15 0;
#X connect 15 0 2 0;
#X connect 16 0 2 0;
#X connect 17 0 16 0;
#X restore 116 361 pd reverb;
#N canvas 875 310 450 300 pan 0;
#X obj 69 36 inlet~;
#X obj 69 65 expr~ $v1*(1.0-$f2) \; $v1*(1.0+$f2) \;;
#X obj 70 111 outlet~;
#X obj 187 111 outlet~;
#X obj 186 38 r gate_pan;
#X connect 0 0 1 0;
#X connect 1 0 2 0;
#X connect 1 1 3 0;
#X connect 4 0 1 1;
#X restore 126 339 pd pan;
#N canvas 742 278 450 300 delay 0;
#X obj 56 19 inlet~;
#X obj 56 208 outlet~;
#X obj 87 179 *~ 0.6;
#X obj 87 104 vd~ a;
#X obj 89 82 sig~;
#X obj 136 68 delwrite~ a 5000;
#X obj 124 7 r gate_enable_delay;
#X obj 124 28 tgl 15 0 empty empty empty 17 7 0 10 -262144 -1 -1 0
1;
#X obj 86 47 spigot~;
#X obj 259 38 BPM;
#X obj 301 98 /;
#X obj 293 76 bondo 2;
#X obj 315 55 + 1;
#X obj 285 36 r gate_delay_frequency;
#X obj 130 137 r gate_delay_strength;
#X obj 257 14 r gate_p7;
#X obj 130 158 Gain;
#X floatatom 161 198 5 0 0 0 - - -;
#X connect 0 0 8 0;
#X connect 0 0 1 0;
#X connect 2 0 5 0;
#X connect 2 0 1 0;
#X connect 3 0 2 0;
#X connect 4 0 3 0;
#X connect 6 0 7 0;
#X connect 7 0 8 1;
#X connect 8 1 5 0;
#X connect 9 0 11 0;
#X connect 10 0 4 0;
#X connect 11 0 10 0;
#X connect 11 1 10 1;
#X connect 12 0 11 1;
#X connect 13 0 12 0;
#X connect 14 0 16 0;
#X connect 15 0 9 0;
#X connect 16 0 2 1;
#X connect 16 0 17 0;
#X restore 126 319 pd delay;
#X obj 126 295 *~ 1;
#X obj 168 436 *~;
#X obj 214 409 limiter~;
#X obj 168 409 z~ 64;
#X obj 76 435 *~;
#X obj 115 409 limiter~;
#X obj 77 408 z~ 64;
#X obj 384 -15 bng 15 250 50 0 empty empty empty 17 7 0 10 -262144
-1 -1;
#N canvas 469 10 450 300 init 0;
#X obj 11 4 import mrpeach;
#X obj 41 138 udpsend;
#X obj 41 28 loadbang;
#X obj 41 164 == 1;
#X obj 40 186 spigot;
#X obj 40 206 bng 15 250 50 0 empty empty empty 17 7 0 10 -262144 -1
-1;
#X obj 83 114 packOSC;
#X msg 40 227 send /initpd 1;
#X msg 138 227 disconnect;
#X msg 41 65 connect localhost 6450;
#X connect 1 0 3 0;
#X connect 2 0 9 0;
#X connect 3 0 4 1;
#X connect 3 0 4 0;
#X connect 4 0 5 0;
#X connect 5 0 7 0;
#X connect 5 0 8 0;
#X connect 6 0 1 0;
#X connect 7 0 6 0;
#X connect 8 0 1 0;
#X connect 9 0 1 0;
#X restore 279 -75 pd init;
#X obj 53 -69 loadbang;
#N canvas 325 279 347 139 input 1;
#N canvas 550 103 594 371 OSC 1;
#X obj 23 -44 unpackOSC;
#X obj 139 241 s gate_synthesis_type;
#N canvas 330 201 664 418 harmonic_distributor 0;
#X obj -688 39 unpack f f;
#X obj -668 86 pack;
#X obj -688 6 inlet;
#X obj -266 18 r gate_synthesis_type;
#X obj -266 41 == 0;
#X obj -230 42 == 1;
#X obj -230 66 tgl 15 0 empty empty empty 17 7 0 10 -262144 -1 -1 0
1;
#X obj -266 65 tgl 15 0 empty empty empty 17 7 0 10 -262144 -1 -1 0
1;
#X obj -668 134 spigot;
#X obj -504 133 spigot;
#X obj -611 229 ftos;
#X obj -611 299 mergefilename;
#X symbolatom -611 325 20 0 0 0 - - -;
#X obj -611 252 bondo 2;
#X obj -611 369 forward;
#X msg -611 346 send \$1;
#X obj -569 205 loadbang;
#X obj -668 180 unpack f f;
#X msg -572 227 gate_a_harmonic_;
#X obj -611 208 + 1;
#X obj -447 237 ftos;
#X obj -447 307 mergefilename;
#X symbolatom -447 333 20 0 0 0 - - -;
#X obj -447 260 bondo 2;
#X obj -447 377 forward;
#X msg -447 354 send \$1;
#X obj -405 213 loadbang;
#X obj -504 177 unpack f f;
#X obj -447 216 + 1;
#X msg -408 235 gate_s_harmonic_;
#X obj -611 277 list prepend;
#X obj -447 285 list prepend;
#X obj -668 157 list-rev;
#X obj -504 155 list-rev;
#X obj -558 61 < 12;
#X obj -471 114 tgl 15 0 empty empty empty 17 7 0 10 -262144 -1 -1
0 1;
#X obj -635 115 tgl 15 0 empty empty empty 17 7 0 10 -262144 -1 -1
0 1;
#X obj -581 84 != 0;
#X obj -544 84 == 0;
#X obj -447 197 - 12;
#X obj -631 64 / 128;
#X connect 0 0 34 0;
#X connect 0 0 1 0;
#X connect 0 1 40 0;
#X connect 1 0 8 0;
#X connect 1 0 9 0;
#X connect 2 0 0 0;
#X connect 3 0 4 0;
#X connect 3 0 5 0;
#X connect 4 0 7 0;
#X connect 5 0 6 0;
#X connect 8 0 32 0;
#X connect 9 0 33 0;
#X connect 10 0 13 0;
#X connect 11 0 12 0;
#X connect 12 0 15 0;
#X connect 13 0 30 0;
#X connect 13 1 30 1;
#X connect 15 0 14 0;
#X connect 16 0 18 0;
#X connect 17 0 14 0;
#X connect 17 1 19 0;
#X connect 18 0 13 1;
#X connect 19 0 10 0;
#X connect 20 0 23 0;
#X connect 21 0 22 0;
#X connect 22 0 25 0;
#X connect 23 0 31 0;
#X connect 23 1 31 1;
#X connect 25 0 24 0;
#X connect 26 0 29 0;
#X connect 27 0 24 0;
#X connect 27 1 39 0;
#X connect 28 0 20 0;
#X connect 29 0 23 1;
#X connect 30 0 11 0;
#X connect 31 0 21 0;
#X connect 32 0 17 0;
#X connect 33 0 27 0;
#X connect 34 0 37 0;
#X connect 34 0 38 0;
#X connect 35 0 9 1;
#X connect 36 0 8 1;
#X connect 37 0 36 0;
#X connect 38 0 35 0;
#X connect 39 0 28 0;
#X connect 40 0 1 1;
#X restore 158 222 pd harmonic_distributor;
#N canvas 746 334 450 300 wave_mix_distributor 0;
#X obj -33 43 unpack f f;
#X obj -32 85 pack;
#X obj -32 136 s gate_sawtooth_mix;
#X obj -14 158 s gate_pulse_mix;
#X obj 5 180 s gate_triangle_mix;
#X obj -33 11 inlet;
#X obj 24 67 / 128;
#X obj -32 110 route 0 1 2 3;
#X obj 24 199 s gate_sine_mix;
#X connect 0 0 1 0;
#X connect 0 1 6 0;
#X connect 1 0 7 0;
#X connect 5 0 0 0;
#X connect 6 0 1 1;
#X connect 7 0 2 0;
#X connect 7 1 3 0;
#X connect 7 2 4 0;
#X connect 7 3 8 0;
#X restore 176 204 pd wave_mix_distributor;
#N canvas 544 419 450 300 midi_distributor 0;
#X msg 48 68 \$1;
#X msg 75 68 \$2;
#X obj 60 39 route 144 176;
#X msg 194 68 \$1;
#X msg 165 69 \$2;
#X obj 165 109 s gate_ctl_value;
#X obj 175 91 s gate_ctl_type;
#X obj 60 13 inlet;
#X obj 48 93 pack f f;
#X obj 40 115 s gate_midi_initial;
#X connect 0 0 8 0;
#X connect 1 0 8 1;
#X connect 2 0 1 0;
#X connect 2 0 0 0;
#X connect 2 1 3 0;
#X connect 2 1 4 0;
#X connect 3 0 6 0;
#X connect 4 0 5 0;
#X connect 7 0 2 0;
#X connect 8 0 9 0;
#X restore 121 260 pd midi_distributor;
#N canvas 829 342 450 300 reverb_distributor 0;
#X obj 12 10 inlet;
#X obj 16 226 s gate_reverb_roomsize;
#X obj 125 187 s gate_reverb_width;
#X obj 12 86 s gate_enable_reverb;
#X obj 70 207 s gate_reverb_damping;
#X obj 12 33 route 0 1 2 3 4 5;
#X obj 13 61 != 0;
#X obj 234 148 s gate_reverb_wet;
#X obj 179 168 s gate_reverb_dry;
#X obj 234 127 / 128;
#X obj 179 128 / 128;
#X obj 125 127 / 128;
#X obj 70 126 / 128;
#X obj 16 126 / 128;
#X connect 0 0 5 0;
#X connect 5 0 6 0;
#X connect 5 1 13 0;
#X connect 5 2 12 0;
#X connect 5 3 11 0;
#X connect 5 4 10 0;
#X connect 5 5 9 0;
#X connect 6 0 3 0;
#X connect 9 0 7 0;
#X connect 10 0 8 0;
#X connect 11 0 2 0;
#X connect 12 0 4 0;
#X connect 13 0 1 0;
#X restore 195 184 pd reverb_distributor;
#N canvas 793 275 450 300 delay_distributor 0;
#X obj 22 20 inlet;
#X obj 23 71 != 0;
#X obj 22 43 route 0 1 2;
#X obj 22 96 s gate_enable_delay;
#X obj 175 211 s gate_delay_strength;
#X obj 175 132 * 0.65;
#X obj 175 153 + 0.3;
#X obj 64 80 s gate_delay_frequency;
#X obj 174 110 / 128;
#X connect 0 0 2 0;
#X connect 1 0 3 0;
#X connect 2 0 1 0;
#X connect 2 1 8 0;
#X connect 2 2 7 0;
#X connect 5 0 6 0;
#X connect 6 0 4 0;
#X connect 8 0 5 0;
#X restore 213 165 pd delay_distributor;
#N canvas 256 292 336 238 lfo_assignment 0;
#X obj 28 6 inlet;
#X obj 154 47 loadbang;
#X obj 28 70 unpack f f;
#X obj 84 123 mergefilename;
#X symbolatom 84 145 25 0 0 0 - - -;
#X msg 84 169 send \$1;
#X obj 84 196 forward;
#X obj 85 100 list prepend;
#X msg 154 70 gate_lfo_assignment_p;
#X obj 28 47 list-rev;
#X connect 0 0 9 0;
#X connect 1 0 8 0;
#X connect 2 0 6 0;
#X connect 2 1 7 0;
#X connect 3 0 4 0;
#X connect 4 0 5 0;
#X connect 5 0 6 0;
#X connect 7 0 3 0;
#X connect 8 0 7 1;
#X connect 9 0 2 0;
#X restore 269 106 pd lfo_assignment;
#N canvas 343 98 367 422 lfo_distributor 0;
#X obj 16 4 inlet;
#X obj 16 150 route 0 1;
#X obj 221 77 loadbang;
#X msg 222 99 gate_lfo_;
#X obj 153 150 mergefilename;
#X obj 153 129 list prepend;
#X obj 148 67 -;
#X symbolatom 153 173 20 0 0 0 - - -;
#X obj 84 242 list prepend;
#X obj 84 265 mergefilename;
#X symbolatom 84 288 20 0 0 0 - - -;
#X msg 84 338 send \$1;
#X obj 72 364 forward;
#X obj 16 24 unpack f f;
#X obj 16 117 pack f f;
#X msg 65 207 _rate;
#X msg 105 208 _depth;
#X obj 154 109 + 1;
#X obj 16 69 mod 2;
#X obj 154 88 / -2;
#X obj 41 290 / 128;
#X obj 16 312 / 6.4;
#X connect 0 0 13 0;
#X connect 1 0 15 0;
#X connect 1 0 21 0;
#X connect 1 1 16 0;
#X connect 1 1 20 0;
#X connect 2 0 3 0;
#X connect 3 0 5 1;
#X connect 4 0 7 0;
#X connect 5 0 4 0;
#X connect 6 0 19 0;
#X connect 7 0 8 1;
#X connect 8 0 9 0;
#X connect 9 0 10 0;
#X connect 10 0 11 0;
#X connect 11 0 12 0;
#X connect 13 0 6 1;
#X connect 13 0 18 0;
#X connect 13 1 14 1;
#X connect 14 0 1 0;
#X connect 15 0 8 0;
#X connect 16 0 8 0;
#X connect 17 0 5 0;
#X connect 18 0 6 0;
#X connect 18 0 14 0;
#X connect 19 0 17 0;
#X connect 20 0 12 0;
#X connect 21 0 12 0;
#X restore 305 260 pd lfo_distributor;
#N canvas 731 300 340 300 arpeggiator_distributor 0;
#X obj 30 22 inlet;
#X obj 30 46 route 0 1 2 3 4 5;
#X obj 30 191 != 0;
#X obj 30 218 s gate_arpeggiate;
#X obj 46 164 s gate_arpeggiator_octaves;
#X obj 63 144 s gate_arpeggiator_direction;
#X obj 79 122 s gate_arpeggiator_priority;
#X obj 96 100 s gate_arpeggiator_rate;
#X obj 112 79 s gate_arpeggiator_phase_reset;
#X connect 0 0 1 0;
#X connect 1 0 2 0;
#X connect 1 1 4 0;
#X connect 1 2 5 0;
#X connect 1 3 6 0;
#X connect 1 4 7 0;
#X connect 1 5 8 0;
#X connect 2 0 3 0;
#X restore 232 145 pd arpeggiator_distributor;
#N canvas 767 221 367 281 property_distributor 0;
#X obj 23 27 inlet;
#X obj 80 121 mergefilename;
#X symbolatom 80 145 20 0 0 0 - - -;
#X obj 148 54 loadbang;
#X msg 149 75 gate_p;
#X obj 80 98 list prepend;
#X obj 23 77 unpack f f;
#X obj 80 195 forward;
#X msg 80 167 send \$1;
#X obj 23 50 list-rev;
#X obj 66 28 r \$0-p_inits;
#X connect 0 0 9 0;
#X connect 1 0 2 0;
#X connect 2 0 8 0;
#X connect 3 0 4 0;
#X connect 4 0 5 1;
#X connect 5 0 1 0;
#X connect 6 0 7 0;
#X connect 6 1 5 0;
#X connect 8 0 7 0;
#X connect 9 0 6 0;
#X connect 10 0 9 0;
#X restore 250 127 pd property_distributor;
#X obj 139 103 route 0;
#N canvas 515 93 450 422 envelope_distributor 0;
#X obj 26 14 inlet;
#X obj 270 87 loadbang;
#X obj 202 160 mergefilename;
#X obj 202 139 list prepend;
#X obj 197 77 -;
#X symbolatom 202 183 20 0 0 0 - - -;
#X obj 133 252 list prepend;
#X obj 133 275 mergefilename;
#X symbolatom 133 298 20 0 0 0 - - -;
#X msg 133 348 send \$1;
#X obj 82 374 forward;
#X obj 26 34 unpack f f;
#X obj 26 127 pack f f;
#X obj 203 119 + 1;
#X obj 26 79 mod 4;
#X obj 26 160 route 0 1 2 3;
#X msg 271 109 gate_envelope_;
#X msg 75 217 _a;
#X msg 103 218 _d;
#X msg 133 218 _s;
#X msg 161 217 _r;
#X obj 203 98 / -4;
#X obj 65 277 / 128;
#X obj 51 300 * 46.9;
#X obj 94 300 * 46.9;
#X obj 26 322 * 46.9;
#X connect 0 0 11 0;
#X connect 1 0 16 0;
#X connect 2 0 5 0;
#X connect 3 0 2 0;
#X connect 4 0 21 0;
#X connect 5 0 6 1;
#X connect 6 0 7 0;
#X connect 7 0 8 0;
#X connect 8 0 9 0;
#X connect 9 0 10 0;
#X connect 11 0 4 1;
#X connect 11 0 14 0;
#X connect 11 1 12 1;
#X connect 12 0 15 0;
#X connect 13 0 3 0;
#X connect 14 0 4 0;
#X connect 14 0 12 0;
#X connect 15 0 17 0;
#X connect 15 0 25 0;
#X connect 15 1 18 0;
#X connect 15 1 23 0;
#X connect 15 2 19 0;
#X connect 15 2 22 0;
#X connect 15 3 20 0;
#X connect 15 3 24 0;
#X connect 16 0 3 1;
#X connect 17 0 6 0;
#X connect 18 0 6 0;
#X connect 19 0 6 0;
#X connect 20 0 6 0;
#X connect 21 0 13 0;
#X connect 22 0 10 0;
#X connect 23 0 10 0;
#X connect 24 0 10 0;
#X connect 25 0 10 0;
#X restore 344 221 pd envelope_distributor;
#N canvas 904 256 450 300 envelope_assignment 0;
#X obj 24 14 inlet;
#X obj 150 55 loadbang;
#X obj 24 78 unpack f f;
#X obj 80 131 mergefilename;
#X symbolatom 80 153 30 0 0 0 - - -;
#X msg 80 177 send \$1;
#X obj 80 204 forward;
#X obj 81 108 list prepend;
#X obj 262 116 loadbang;
#X obj 261 167 iter;
#X obj 261 194 pack f f;
#X msg 301 166 0;
#X msg 265 142 0 1 2 3 4 5 6 7 8 9 10;
#X obj 24 55 list-rev;
#X obj 89 25 r \$0-envelope_assignment_inits;
#X obj 260 217 s \$0-envelope_assignment_inits;
#X msg 150 78 gate_envelope_assignment_p;
#X connect 0 0 13 0;
#X connect 1 0 16 0;
#X connect 2 0 6 0;
#X connect 2 1 7 0;
#X connect 3 0 4 0;
#X connect 4 0 5 0;
#X connect 5 0 6 0;
#X connect 7 0 3 0;
#X connect 8 0 11 0;
#X connect 8 0 12 0;
#X connect 9 0 10 0;
#X connect 10 0 15 0;
#X connect 11 0 10 1;
#X connect 12 0 9 0;
#X connect 13 0 2 0;
#X connect 14 0 13 0;
#X connect 16 0 7 1;
#X restore 287 87 pd envelope_assignment;
#N canvas 628 164 450 445 com 0;
#X obj 38 23 inlet;
#X obj 38 46 unpack s f f;
#X msg 38 75 connect \$1 6451;
#X obj 37 351 udpsend;
#X obj 54 321 packOSC;
#X obj 150 103 r gate_midi_note;
#X obj 256 103 r gate_midi_velocity;
#X obj 109 171 spigot;
#X obj 107 138 tgl 15 0 empty empty empty 17 7 0 10 -262144 -1 -1 0
1;
#X obj 77 263 pack f f;
#X msg 60 102 disconnect;
#X msg 77 289 send /gate/chord \$1 \$2;
#X obj 37 375 == 1;
#X msg 37 400 send /gate/enslave 1;
#X connect 0 0 1 0;
#X connect 1 0 2 0;
#X connect 1 1 8 0;
#X connect 2 0 3 0;
#X connect 3 0 12 0;
#X connect 4 0 3 0;
#X connect 5 0 7 0;
#X connect 6 0 9 1;
#X connect 7 0 9 0;
#X connect 8 0 7 1;
#X connect 9 0 11 0;
#X connect 10 0 3 0;
#X connect 11 0 4 0;
#X connect 12 0 13 0;
#X connect 13 0 4 0;
#X restore 362 202 pd com;
#X obj 23 -19 routeOSC /gate;
#N canvas 575 101 732 466 controller 0;
#X obj 26 1 inlet;
#X obj 413 302 bng 15 250 50 0 empty empty empty 17 7 0 10 -262144
-1 -1;
#X msg 413 320 symbol;
#X obj 83 368 s2l;
#X obj 243 368 s2l;
#X obj 397 368 s2l;
#X obj 83 415 s gate_controller_types;
#X obj 83 392 list-delete 0 1;
#X obj 243 392 list-delete 0 1;
#X obj 397 391 list-delete 0 1;
#X obj 243 414 s gate_controller_values;
#X obj 397 414 s gate_controller_octaves;
#X obj 25 68 s gate_map_controller;
#X obj 75 155 route 0 1;
#X obj 153 192 route 0;
#X obj 153 217 s gate_controller_chord;
#X obj 170 75 route 0;
#X obj 169 96 s gate_controller_tonic;
#X obj 309 220 s gate_controller_allow_send;
#X obj 310 200 != 0;
#X obj 308 132 route 0 1;
#X obj 348 175 != 0;
#X obj 347 195 s gate_controller_allow_receive;
#X obj 37 256 unpack s s s;
#X obj 389 120 unpack f f;
#X obj 389 164 s gate_force_monophony;
#X obj 446 146 s gate_force_note_shift;
#X obj 75 178 bondo 2;
#X obj 75 198 pack f f;
#X obj 75 218 s gate_key;
#X obj 467 101 route 0;
#X obj 467 123 s gate_controller_octave_mod;
#X obj 25 26 routeOSC /enabled /values /key /chord /tonic /com /properties
/octave /send_key;
#X obj 481 43 route 0;
#X obj 481 67 s gate_controller_send_key;
#X connect 0 0 32 0;
#X connect 1 0 2 0;
#X connect 2 0 3 1;
#X connect 2 0 4 1;
#X connect 2 0 5 1;
#X connect 3 0 7 0;
#X connect 4 0 8 0;
#X connect 5 0 9 0;
#X connect 7 0 6 0;
#X connect 8 0 10 0;
#X connect 9 0 11 0;
#X connect 13 0 27 0;
#X connect 13 1 27 1;
#X connect 14 0 15 0;
#X connect 16 0 17 0;
#X connect 19 0 18 0;
#X connect 20 0 19 0;
#X connect 20 1 21 0;
#X connect 21 0 22 0;
#X connect 23 0 3 0;
#X connect 23 1 4 0;
#X connect 23 2 5 0;
#X connect 24 0 25 0;
#X connect 24 1 26 0;
#X connect 27 0 28 0;
#X connect 27 1 28 1;
#X connect 28 0 29 0;
#X connect 30 0 31 0;
#X connect 32 0 12 0;
#X connect 32 1 1 0;
#X connect 32 1 23 0;
#X connect 32 2 13 0;
#X connect 32 3 14 0;
#X connect 32 4 16 0;
#X connect 32 5 20 0;
#X connect 32 6 24 0;
#X connect 32 7 30 0;
#X connect 32 8 33 0;
#X connect 33 0 34 0;
#X restore 380 182 pd controller;
#X obj 398 163 s gate_flush;
#X obj 306 -23 udpsend;
#X msg 306 -47 connect localhost 6450;
#X obj 306 -71 loadbang;
#X obj 205 -71 udpreceive 6448;
#X obj 23 -72 udpreceive 6449;
#X obj 116 -46 r gate_midi_to_osc;
#X obj 126 -23 packOSC;
#X obj 121 18 routeOSC /midi /synthesis_type /harmonic /mix /reverb
/delay /arpeggiator /property /lfo_assignment /envelope_assignment
/lfo /lfo_envelope_assignment /envelope /com /controller /flush /suboscillator
;
#N canvas 854 194 450 300 suboscillator_distributor 0;
#X obj 29 22 inlet;
#X obj 29 137 s gate_suboscillator_gain;
#X obj 54 116 s gate_suboscillator_octave;
#X obj 29 44 route 0 1;
#X connect 0 0 3 0;
#X connect 3 0 1 0;
#X connect 3 1 2 0;
#X restore 417 141 pd suboscillator_distributor;
#X connect 0 0 15 0;
#X connect 11 0 1 0;
#X connect 15 0 25 0;
#X connect 19 0 18 0;
#X connect 20 0 19 0;
#X connect 21 0 0 0;
#X connect 21 0 18 0;
#X connect 22 0 0 0;
#X connect 23 0 24 0;
#X connect 23 0 15 0;
#X connect 24 0 18 0;
#X connect 25 0 4 0;
#X connect 25 1 11 0;
#X connect 25 2 2 0;
#X connect 25 3 3 0;
#X connect 25 4 5 0;
#X connect 25 5 6 0;
#X connect 25 6 9 0;
#X connect 25 7 10 0;
#X connect 25 8 7 0;
#X connect 25 9 13 0;
#X connect 25 10 8 0;
#X connect 25 12 12 0;
#X connect 25 13 14 0;
#X connect 25 14 16 0;
#X connect 25 15 17 0;
#X connect 25 16 26 0;
#X restore -55 49 pd OSC;
#N canvas 807 289 532 300 ArpeggiatorShell 0;
#X obj 227 50 BPM;
#X obj 274 103 /;
#X obj 266 81 bondo 2;
#X obj 300 60 + 1;
#X obj 80 110 r gate_arpeggiator_priority;
#X obj 46 52 r gate_arpeggiator_octaves;
#X obj 57 71 r gate_arpeggiator_direction;
#X obj 23 16 r gate_arpeggiate;
#X obj 258 41 r gate_arpeggiator_rate;
#X obj 230 19 r gate_p7;
#X obj 23 185 Arpeggiator2;
#X obj 92 128 r gate_arpeggiator_phase_reset;
#X obj 34 34 r gate_midi_pack;
#X obj 46 159 + 1;
#X obj 23 206 s gate_midi_final;
#X connect 0 0 2 0;
#X connect 1 0 10 4;
#X connect 2 0 1 0;
#X connect 2 1 1 1;
#X connect 3 0 2 1;
#X connect 4 0 10 5;
#X connect 5 0 13 0;
#X connect 6 0 10 3;
#X connect 7 0 10 0;
#X connect 8 0 3 0;
#X connect 9 0 0 0;
#X connect 10 0 14 0;
#X connect 11 0 10 6;
#X connect 12 0 10 1;
#X connect 13 0 10 2;
#X restore -57 29 pd ArpeggiatorShell;
#N canvas 637 256 366 237 StandardNotes 0;
#X obj 32 80 spigot;
#X obj 123 16 r gate_arpeggiate;
#X obj 18 17 r gate_midi_pack;
#X obj 123 41 != 1;
#X obj 65 59 tgl 15 0 empty empty empty 17 7 0 10 -262144 -1 -1 1 1
;
#X obj 32 102 s gate_midi_final;
#X connect 0 0 5 0;
#X connect 1 0 3 0;
#X connect 2 0 0 0;
#X connect 3 0 4 0;
#X connect 4 0 0 1;
#X restore -58 8 pd StandardNotes;
#N canvas 386 167 683 444 MIDI 1;
#X obj 499 184 notein;
#X obj 24 375 s gate_midi_pack;
#X obj 108 20 r gate_map_controller;
#X obj 223 47 loadbang;
#X obj 301 23 bendin;
#X obj 301 46 / 16383;
#X obj 300 67 - 0.5;
#X obj 300 88 * 2;
#X obj 299 111 s gate_pitch_bend;
#X obj 418 24 ctlin;
#X obj 418 68 s gate_ctl_value;
#X obj 431 46 s gate_ctl_type;
#N canvas 613 43 574 578 note_context_prep 1;
#X obj 25 22 inlet;
#X obj 84 327 outlet;
#X obj 146 177 list-idx;
#X obj 349 138 list-idx;
#X obj 349 184 * 12;
#X obj 349 163 + 1;
#X obj 349 110 lister l;
#X obj 394 88 r gate_controller_octaves;
#X obj 146 155 lister l;
#X obj 190 127 r gate_controller_types;
#X obj 349 207 outlet;
#X obj 147 125 bng 15 250 50 0 empty empty empty 17 7 0 10 -262144
-1 -1;
#X obj 349 92 bng 15 250 50 0 empty empty empty 17 7 0 10 -262144 -1
-1;
#X obj 186 248 r gate_controller_values;
#X obj 141 271 lister l;
#X obj 141 252 bng 15 250 50 0 empty empty empty 17 7 0 10 -262144
-1 -1;
#X obj 141 292 list-idx;
#X obj 72 437 f;
#X obj 47 437 f;
#X obj 22 437 f;
#X obj 22 416 bng 15 250 50 0 empty empty empty 17 7 0 10 -262144 -1
-1;
#X obj 47 415 bng 15 250 50 0 empty empty empty 17 7 0 10 -262144 -1
-1;
#X obj 72 414 bng 15 250 50 0 empty empty empty 17 7 0 10 -262144 -1
-1;
#X obj 141 313 - 1;
#X obj 47 501 s gate_controller_tonic_p;
#X obj 72 480 s gate_controller_chord_p;
#X obj 223 322 outlet;
#X obj 83 300 f;
#X obj 90 281 bng 15 250 50 0 empty empty empty 17 7 0 10 -262144 -1
-1;
#X obj 144 202 t b f f;
#X obj 25 43 t b b b f f f;
#X obj 171 408 f;
#X obj 14 255 route 4 5 6 7;
#X obj 162 386 bng 15 250 50 0 empty empty empty 17 7 0 10 -262144
-1 -1;
#N canvas 843 309 450 333 drums 1;
#X obj 40 23 inlet;
#X obj 43 186 Drum/bass_drum;
#X obj 61 166 Drum/snare;
#X obj 80 145 Drum/HH_closed;
#X obj 99 125 Drum/HH_open;
#X obj 43 293 s~ gate_drum_signal;
#N canvas 574 163 506 448 lpf 0;
#X obj 19 18 inlet~;
#X obj 21 417 outlet~;
#X obj 41 280 *;
#X obj 20 387 lop~;
#X msg 81 167 set \$1;
#X obj 85 102 list prepend;
#X obj 226 57 loadbang;
#X obj 79 191 iem_r;
#X obj 81 125 mergefilename;
#X symbolatom 81 147 15 0 0 0 - - -;
#X obj 75 77 r gate_lfo_assignment_p0;
#X obj 41 49 r gate_p0;
#X msg 225 78 gate_lfo_half_;
#X obj 78 213 - 1;
#X obj 78 236 * -1;
#X obj 41 366 mtof;
#X obj 41 345 line;
#X msg 41 322 \$1 10;
#X obj 41 259 bondo 2;
#X connect 0 0 3 0;
#X connect 2 0 17 0;
#X connect 3 0 1 0;
#X connect 4 0 7 0;
#X connect 5 0 8 0;
#X connect 6 0 12 0;
#X connect 7 0 13 0;
#X connect 8 0 9 0;
#X connect 9 0 4 0;
#X connect 10 0 5 0;
#X connect 11 0 18 0;
#X connect 12 0 5 1;
#X connect 13 0 14 0;
#X connect 14 0 18 1;
#X connect 15 0 3 1;
#X connect 16 0 15 0;
#X connect 17 0 16 0;
#X connect 18 0 2 0;
#X connect 18 1 2 1;
#X restore 44 230 pd lpf;
#N canvas 404 195 450 428 hpf 0;
#X obj 20 12 inlet~;
#X obj 22 401 outlet~;
#X obj 42 274 *;
#X msg 82 161 set \$1;
#X obj 86 96 list prepend;
#X obj 227 51 loadbang;
#X obj 80 185 iem_r;
#X obj 82 119 mergefilename;
#X symbolatom 82 141 15 0 0 0 - - -;
#X msg 226 72 gate_lfo_half_;
#X obj 79 207 - 1;
#X obj 79 230 * -1;
#X obj 42 358 mtof;
#X obj 21 381 hip~;
#X obj 78 71 r gate_lfo_assignment_p1;
#X obj 42 338 line;
#X msg 42 316 \$1 10;
#X obj 42 36 r gate_p1;
#X obj 42 253 bondo 2;
#X connect 0 0 13 0;
#X connect 2 0 16 0;
#X connect 3 0 6 0;
#X connect 4 0 7 0;
#X connect 5 0 9 0;
#X connect 6 0 10 0;
#X connect 7 0 8 0;
#X connect 8 0 3 0;
#X connect 9 0 4 1;
#X connect 10 0 11 0;
#X connect 11 0 18 1;
#X connect 12 0 13 1;
#X connect 13 0 1 0;
#X connect 14 0 4 0;
#X connect 15 0 12 0;
#X connect 16 0 15 0;
#X connect 17 0 18 0;
#X connect 18 0 2 0;
#X connect 18 1 2 1;
#X restore 43 253 pd hpf;
#N canvas 417 117 450 470 bpf 0;
#X obj 18 11 inlet~;
#X obj 18 443 outlet~;
#X obj 24 272 *;
#X obj 17 413 bp~;
#X obj 56 386 r gate_p3;
#X obj 24 35 r gate_p2;
#X msg 64 160 set \$1;
#X obj 64 95 list prepend;
#X obj 218 50 loadbang;
#X obj 64 118 mergefilename;
#X symbolatom 64 140 15 0 0 0 - - -;
#X obj 64 70 r gate_lfo_assignment_p2;
#X obj 64 184 iem_r;
#X obj 64 207 - 1;
#X obj 64 229 * -1;
#X msg 217 71 gate_lfo_;
#X obj 24 386 mtof;
#X obj 24 366 line;
#X msg 24 341 \$1 10;
#X obj 24 251 bondo 2;
#X connect 0 0 3 0;
#X connect 2 0 18 0;
#X connect 3 0 1 0;
#X connect 4 0 3 2;
#X connect 5 0 19 0;
#X connect 6 0 12 0;
#X connect 7 0 9 0;
#X connect 8 0 15 0;
#X connect 9 0 10 0;
#X connect 10 0 6 0;
#X connect 11 0 7 0;
#X connect 12 0 13 0;
#X connect 13 0 14 0;
#X connect 14 0 19 1;
#X connect 15 0 7 1;
#X connect 16 0 3 1;
#X connect 17 0 16 0;
#X connect 18 0 17 0;
#X connect 19 0 2 0;
#X connect 19 1 2 1;
#X restore 43 274 pd bpf;
#N canvas 282 166 450 480 gain 1;
#X obj 16 11 inlet~;
#X obj 14 403 outlet~;
#X obj 38 262 *;
#X msg 79 148 set \$1;
#X obj 83 83 list prepend;
#X obj 224 38 loadbang;
#X obj 77 172 iem_r;
#X obj 79 106 mergefilename;
#X symbolatom 79 128 15 0 0 0 - - -;
#X obj 73 58 r gate_lfo_assignment_p4;
#X obj 38 35 r gate_p4;
#X obj 15 376 *~;
#X msg 223 59 gate_lfo_half_;
#X obj 78 193 - 1;
#X obj 76 216 * -1;
#X obj 38 83 / 128;
#X obj 38 356 vline~;
#X msg 38 331 \$1 10;
#X obj 38 308 Gain;
#X obj 38 241 bondo 2;
#X connect 0 0 11 0;
#X connect 2 0 18 0;
#X connect 3 0 6 0;
#X connect 4 0 7 0;
#X connect 5 0 12 0;
#X connect 6 0 13 0;
#X connect 7 0 8 0;
#X connect 8 0 3 0;
#X connect 9 0 4 0;
#X connect 10 0 15 0;
#X connect 11 0 1 0;
#X connect 12 0 4 1;
#X connect 13 0 14 0;
#X connect 14 0 19 1;
#X connect 15 0 19 0;
#X connect 16 0 11 1;
#X connect 17 0 16 0;
#X connect 18 0 17 0;
#X connect 19 0 2 0;
#X connect 19 1 2 1;
#X restore 44 210 pd gain;
#X obj 40 46 route 0 1 2 3 4 5;
#X obj 116 101 Drum/Crash;
#X obj 132 81 Drum/tom;
#X connect 0 0 10 0;
#X connect 1 0 9 0;
#X connect 2 0 9 0;
#X connect 3 0 9 0;
#X connect 4 0 9 0;
#X connect 6 0 7 0;
#X connect 7 0 8 0;
#X connect 8 0 5 0;
#X connect 9 0 6 0;
#X connect 10 0 1 0;
#X connect 10 1 2 0;
#X connect 10 2 3 0;
#X connect 10 3 4 0;
#X connect 10 4 11 0;
#X connect 10 5 12 0;
#X connect 11 0 9 0;
#X connect 12 0 9 0;
#X restore 173 430 pd drums;
#X obj 281 490 pack f f;
#X obj 281 514 s gate_key_p;
#X connect 0 0 30 0;
#X connect 2 0 29 0;
#X connect 3 0 5 0;
#X connect 3 0 35 1;
#X connect 4 0 10 0;
#X connect 5 0 4 0;
#X connect 6 0 3 0;
#X connect 7 0 6 1;
#X connect 8 0 2 0;
#X connect 9 0 8 1;
#X connect 11 0 8 0;
#X connect 12 0 6 0;
#X connect 13 0 14 1;
#X connect 14 0 16 0;
#X connect 15 0 14 0;
#X connect 16 0 23 0;
#X connect 17 0 25 0;
#X connect 18 0 24 0;
#X connect 19 0 35 0;
#X connect 20 0 19 0;
#X connect 21 0 18 0;
#X connect 22 0 17 0;
#X connect 23 0 17 1;
#X connect 23 0 18 1;
#X connect 23 0 19 1;
#X connect 23 0 27 1;
#X connect 23 0 31 1;
#X connect 27 0 1 0;
#X connect 28 0 27 0;
#X connect 29 0 28 0;
#X connect 29 1 32 0;
#X connect 29 2 26 0;
#X connect 30 0 11 0;
#X connect 30 1 15 0;
#X connect 30 2 12 0;
#X connect 30 3 16 1;
#X connect 30 4 2 1;
#X connect 30 5 3 1;
#X connect 31 0 34 0;
#X connect 32 0 20 0;
#X connect 32 1 21 0;
#X connect 32 2 22 0;
#X connect 32 3 33 0;
#X connect 33 0 31 0;
#X connect 35 0 36 0;
#X restore 25 137 pd note_context_prep;
#X obj 25 253 pack f f f f;
#X obj 194 284 pack f f f f;
#X obj 239 241 bng 15 250 50 0 empty empty empty 17 7 0 10 -262144
-1 -1;
#X msg 239 262 0;
#X msg 263 262 0;
#X msg 194 237 \$2;
#X obj 25 91 list prepend;
#X msg 223 69 0;
#X obj 25 113 route 1;
#X obj 58 295 < 4;
#X obj 25 336 spigot;
#X obj 58 316 tgl 15 0 empty empty empty 17 7 0 10 -262144 -1 -1 0
1;
#X msg 58 275 \$3;
#X obj 25 -1 r gate_midi_initial;
#X obj 25 20 unpack f f;
#X obj 499 206 pack f f;
#X obj 499 228 s gate_midi_initial;
#X floatatom 554 56 5 0 0 0 - - -;
#X connect 0 0 28 0;
#X connect 0 1 28 1;
#X connect 2 0 19 1;
#X connect 3 0 20 0;
#X connect 4 0 5 0;
#X connect 5 0 6 0;
#X connect 6 0 7 0;
#X connect 7 0 8 0;
#X connect 9 0 10 0;
#X connect 9 0 30 0;
#X connect 9 1 11 0;
#X connect 12 0 13 0;
#X connect 12 1 13 2;
#X connect 12 2 13 3;
#X connect 13 0 25 0;
#X connect 13 0 23 0;
#X connect 14 0 1 0;
#X connect 15 0 16 0;
#X connect 15 0 17 0;
#X connect 16 0 14 2;
#X connect 17 0 14 3;
#X connect 18 0 14 0;
#X connect 19 0 21 0;
#X connect 20 0 19 1;
#X connect 21 0 12 0;
#X connect 21 1 15 0;
#X connect 21 1 18 0;
#X connect 22 0 24 0;
#X connect 23 0 1 0;
#X connect 24 0 23 1;
#X connect 25 0 22 0;
#X connect 26 0 27 0;
#X connect 27 0 19 0;
#X connect 27 1 14 1;
#X connect 27 1 13 1;
#X connect 28 0 29 0;
#X restore -55 71 pd MIDI;
#X restore 328 -75 pd input;
#N canvas 311 83 450 307 com_in 1;
#X obj 252 13 import mrpeach;
#X obj -11 87 unpackOSC;
#X obj -11 112 routeOSC /gate;
#X obj -11 136 routeOSC /key /chord /tonic;
#X obj 42 207 s gate_controller_chord;
#X obj 95 186 s gate_controller_tonic;
#X obj -11 10 udpreceive 239.1.1.1 6451;
#X obj 95 166 route 0;
#X obj -11 63 spigot;
#X obj 22 39 r gate_controller_allow_receive;
#X obj -11 228 s gate_key;
#X connect 1 0 2 0;
#X connect 2 0 3 0;
#X connect 3 0 10 0;
#X connect 3 1 4 0;
#X connect 3 2 7 0;
#X connect 6 0 8 0;
#X connect 7 0 5 0;
#X connect 8 0 1 0;
#X connect 9 0 8 1;
#X restore 385 -55 pd com_in;
#N canvas 557 151 508 388 com_out 1;
#X obj 304 30 import mrpeach;
#X obj 40 363 udpsend;
#X obj 104 261 loadbang;
#X obj 47 310 packOSC;
#X msg 62 148 send /gate/tonic \$1;
#X msg 71 193 send /gate/chord \$1;
#X msg 104 283 connect 239.1.1.1 6451;
#X obj 62 125 r gate_controller_tonic_p;
#X obj 71 172 r gate_controller_chord_p;
#X obj 258 148 s gate_controller_tonic;
#X obj 253 201 s gate_controller_chord;
#X obj 103 305 r gate_controller_allow_send;
#X obj 45 337 spigot;
#X obj 123 23 r gate_controller_send_key;
#X obj 124 43 bng 15 250 50 0 empty empty empty 17 7 0 10 -262144 -1
-1;
#X obj 173 48 r gate_key;
#X obj 75 78 s gate_key;
#X obj 48 58 r gate_key_p;
#X msg 48 103 send /gate/key \$1 \$2;
#X obj 173 78 lister l;
#X connect 2 0 6 0;
#X connect 3 0 12 0;
#X connect 4 0 3 0;
#X connect 5 0 3 0;
#X connect 6 0 1 0;
#X connect 7 0 4 0;
#X connect 7 0 9 0;
#X connect 8 0 5 0;
#X connect 8 0 10 0;
#X connect 11 0 12 1;
#X connect 12 0 1 0;
#X connect 13 0 14 0;
#X connect 14 0 19 0;
#X connect 15 0 19 1;
#X connect 17 0 16 0;
#X connect 17 0 18 0;
#X connect 18 0 3 0;
#X connect 19 0 18 0;
#X restore 385 -36 pd com_out;
#N canvas 744 298 450 300 voice_switch 0;
#X obj 15 46 inlet;
#X obj 146 23 r gate_force_monophony;
#X obj 15 134 outlet;
#X obj 57 133 outlet;
#X obj 84 27 loadbang;
#X msg 84 48 0;
#X obj 15 69 list prepend;
#X obj 15 92 route 0 1;
#X connect 0 0 6 0;
#X connect 1 0 6 1;
#X connect 4 0 5 0;
#X connect 5 0 6 1;
#X connect 6 0 7 0;
#X connect 7 0 2 0;
#X connect 7 1 3 0;
#X restore 127 -7 pd voice_switch;
#X obj 127 -31 r gate_midi_final;
#X obj 127 16 unpack f f f f;
#X obj 127 117 pack f f f f f;
#N canvas 885 114 450 300 flush 0;
#X obj 16 7 inlet;
#X obj 18 92 uzi 128;
#X obj 18 114 counter;
#X obj 19 171 s gate_midi_final;
#X obj 18 144 pack f f f f;
#X msg 86 111 0;
#X msg 118 111 0;
#X msg 150 110 0;
#X obj 16 30 bng 15 250 50 0 empty empty empty 17 7 0 10 -262144 -1
-1;
#X obj 17 49 uzi 5;
#X obj 18 69 bng 15 250 50 0 empty empty empty 17 7 0 10 -262144 -1
-1;
#X connect 0 0 5 0;
#X connect 0 0 6 0;
#X connect 0 0 7 0;
#X connect 0 0 8 0;
#X connect 1 0 2 0;
#X connect 2 0 4 0;
#X connect 4 0 3 0;
#X connect 5 0 4 1;
#X connect 6 0 4 2;
#X connect 7 0 4 3;
#X connect 8 0 9 0;
#X connect 9 0 10 0;
#X connect 10 0 2 2;
#X connect 10 0 1 0;
#X restore 385 12 pd flush;
#N canvas 785 351 450 300 encryption 0;
#X obj 25 22 inlet;
#X obj 64 22 inlet;
#X obj 104 23 inlet;
#X obj 104 45 * 48;
#X obj 64 45 * 144;
#X obj 25 102 +;
#X obj 64 73 +;
#X obj 25 126 outlet;
#X connect 0 0 5 0;
#X connect 1 0 4 0;
#X connect 2 0 3 0;
#X connect 3 0 6 1;
#X connect 4 0 6 0;
#X connect 5 0 7 0;
#X connect 6 0 5 1;
#X restore 127 39 pd encryption;
#N canvas 817 360 450 300 decryption 0;
#X obj 47 24 inlet;
#X obj 88 23 inlet;
#X obj 132 22 inlet;
#X obj 132 45 * 48;
#X obj 88 47 * 144;
#X obj 47 77 -;
#X obj 47 103 -;
#X obj 47 127 outlet;
#X connect 0 0 5 0;
#X connect 1 0 4 0;
#X connect 2 0 3 0;
#X connect 3 0 6 1;
#X connect 4 0 5 1;
#X connect 5 0 6 0;
#X connect 6 0 7 0;
#X restore 148 90 pd decryption;
#X obj 406 -15 r gate_flush;
#X obj 207 249 r~ gate_drum_signal;
#X obj 173 162 GateVoice2;
#X obj 127 221 GateVoice2;
#X obj 157 181 GateVoice2;
#X obj 142 200 GateVoice2;
#X obj 335 145 GateVoice2;
#X obj 127 140 route 1 2 3 4;
#X obj 127 62 poly 4 1;
#X connect 0 0 1 0;
#X connect 4 0 0 0;
#X connect 7 0 15 0;
#X connect 7 0 16 0;
#X connect 7 1 13 0;
#X connect 7 1 12 0;
#X connect 8 0 7 0;
#X connect 8 1 7 1;
#X connect 9 0 8 0;
#X connect 10 0 9 0;
#X connect 11 0 6 1;
#X connect 12 0 11 1;
#X connect 13 0 11 0;
#X connect 14 0 6 0;
#X connect 15 0 14 1;
#X connect 16 0 14 0;
#X connect 17 0 27 0;
#X connect 19 0 0 0;
#X connect 23 0 25 0;
#X connect 23 1 36 0;
#X connect 24 0 23 0;
#X connect 25 0 28 0;
#X connect 25 1 38 1;
#X connect 25 2 28 1;
#X connect 25 2 29 1;
#X connect 25 2 26 3;
#X connect 25 3 28 2;
#X connect 25 3 29 2;
#X connect 25 3 26 4;
#X connect 26 0 37 0;
#X connect 28 0 38 0;
#X connect 29 0 26 1;
#X connect 30 0 27 0;
#X connect 31 0 10 0;
#X connect 32 0 10 0;
#X connect 33 0 10 0;
#X connect 34 0 10 0;
#X connect 35 0 10 0;
#X connect 36 0 10 0;
#X connect 37 0 33 0;
#X connect 37 1 35 0;
#X connect 37 2 34 0;
#X connect 37 3 32 0;
#X connect 38 0 26 0;
#X connect 38 1 29 0;
#X connect 38 2 26 2;
#X restore 278 15 pd synth;
#X obj 128 5 knob 32 32 0.01 1000 0 0 gate_p4 gate_p4 volume 0 -8 0
12 -262144 -1 -1 0 1;
#X obj 127 78 knob 32 32 0 1000 0 0 gate_p5 gate_p5 pulse_width 0 -8
0 12 -262144 -1 -1 0 1;
#X obj 37 155 vsl 15 128 0 1000 0 0 gate_p0 gate_p0 LPF 0 -9 0 10 -262144
-1 -1 0 1;
#X obj 86 155 vsl 15 128 0 0.75 0 0 gate_sub_osc gate_sub_osc suboscillator
0 -9 0 10 -262144 -1 -1 0 1;
#X obj 283 154 vsl 15 128 5 6000 0 0 gate_gain_attack gate_gain_attack
attack 0 -9 0 10 -262144 -1 -1 0 1;
#X obj 328 154 vsl 15 128 5 3000 0 0 gate_gain_decay gate_gain_decay
decay 0 -9 0 10 -262144 -1 -1 0 1;
#X obj 370 155 vsl 15 128 0 1 0 0 gate_gain_sustain gate_gain_sustain
sustain 0 -9 0 10 -262144 -1 -1 0 1;
#X obj 421 155 vsl 15 128 5 6000 0 0 gate_gain_release gate_gain_release
release 0 -9 0 10 -262144 -1 -1 0 1;
#X obj 181 154 vsl 15 128 0 1000 0 0 gate_p1 gate_p1 HPF 0 -9 0 10
-262144 -1 -1 0 1;
#X text 59 57 Sine;
#X obj 202 4 knob 32 32 -0.5 0.5 0 1 gate_pan gate_pan pan 0 -8 0 14
-262144 -1 -1 1550 1;
#X obj 45 334 vsl 15 128 0 20 0 0 gate_gain_lfo_rate gate_gain_lfo_rate
glfo_rate 0 -9 0 10 -262144 -1 -1 0 1;
#X obj 112 333 vsl 15 128 0 1 0 0 gate_gain_lfo_depth gate_gain_lfo_depth
glfo_depth 0 -9 0 10 -262144 -1 -1 0 1;
#X obj 228 332 vsl 15 128 0 20 0 0 gate_lpf_lfo_rate gate_lpf_lfo_rate
clfo_rate 0 -9 0 10 -262144 -1 -1 0 1;
#X obj 299 334 vsl 15 128 0 1 0 0 gate_lpf_lfo_depth gate_lpf_lfo_depth
clfo_depth 0 -9 0 10 -262144 -1 -1 0 1;
#X obj 398 335 vsl 15 128 0 20 0 0 gate_vibrato_rate gate_vibrato_rate
vibrato_rate 0 -9 0 10 -262144 -1 -1 0 1;
#X obj 486 336 vsl 15 128 0 0.1225 0 0 gate_vibrato_depth gate_vibrato_depth
vibrato_depth 0 -9 0 10 -262144 -1 -1 0 1;
#X obj 267 54 tgl 15 0 gate_enable_reverb empty reverb 17 7 0 10 -262144
-1 -1 0 1;
#X obj 641 337 vsl 15 128 0 0.99 0 0 gate_pulse_width_lfo_depth gate_pulse_width_lfo_depth
pwlfo_depth 0 -9 0 10 -262144 -1 -1 0 1;
#X obj 572 337 vsl 15 128 0 20 0 0 gate_pulse_width_lfo_rate gate_pulse_width_lfo_rate
pwlfo_rate 0 -9 0 10 -262144 -1 -1 0 1;
#X obj 718 337 vsl 15 128 0 20 0 0 gate_hpf_lfo_rate gate_hpf_lfo_rate
hpf_lfo_rate 0 -9 0 10 -262144 -1 -1 0 1;
#X obj 794 337 vsl 15 128 0 1 0 0 gate_hpf_lfo_depth gate_hpf_lfo_depth
hpf_lfo_depth 0 -9 0 10 -262144 -1 -1 0 1;
#X obj 631 160 tgl 15 1 gate_arpeggiate gate_arpeggiate on 17 7 0 10
-262144 -1 -1 0 1;
#X text 626 128 Arpeggiator;
#X obj 632 194 vradio 15 1 0 4 gate_arpeggiator_octaves gate_arpeggiator_octaves
octaves 0 -8 0 10 -262144 -1 -1 0;
#X text 649 192 1;
#X text 649 207 2;
#X text 649 222 3;
#X text 649 238 4;
#X obj 719 168 vradio 15 1 0 2 gate_arpeggiator_direction gate_arpeggiator_direction
direction 0 -8 0 10 -262144 -1 -1 0;
#X text 736 180 down;
#X text 738 164 up;
#X obj 719 222 vradio 15 1 0 2 gate_arpeggiator_priority gate_arpeggiator_priority
priority 0 -8 0 10 -262144 -1 -1 0;
#X text 739 220 down;
#X text 740 234 up;
#X obj 797 161 tgl 15 0 arpeggiator_phase_reset arpeggiator_phase_reset
phase_reset 17 7 0 10 -262144 -1 -1 0 1;
#X obj 798 201 vradio 15 1 0 4 gate_arpeggiator_rate gate_arpeggiator_rate
empty 0 -8 0 10 -262144 -1 -1 0;
#X text 815 198 bpm/1;
#X text 815 213 bpm/2;
#X text 815 228 bpm/3;
#X text 815 243 bpm/4;
#X obj 513 155 vsl 15 128 0 1000 0 0 gate_portamento_rate gate_portamento_rate
portamento_rate 0 -9 0 10 -262144 -1 -1 0 1;
#X obj 267 73 tgl 15 0 gate_enable_delay empty delay 17 7 0 10 -262144
-1 -1 0 1;
#X obj 343 60 vradio 15 1 0 4 gate_delay_frequency gate_delay_frequency
empty 0 -8 0 10 -262144 -1 -1 0;
#X text 360 57 bpm/1;
#X text 360 72 bpm/2;
#X text 360 87 bpm/3;
#X text 360 102 bpm/4;
#X text 340 43 delay rate;
#X text 797 183 rate;
#X obj 415 64 knob 32 32 0.3 0.95 0 0 gate_delay_strength gate_delay_strength
empty 0 -8 0 8 -262144 -1 -1 0 1;
#X text 411 43 delay strength;
