#N canvas 263 73 393 332 10;
#X obj -81 8 inlet;
#X obj -81 155 mtof;
#X obj -81 176 f;
#N canvas 125 150 450 300 wave_distribution 0;
#X obj 294 20 r gate_synthesis_type;
#X obj 294 44 == 0;
#X obj 328 43 == 1;
#X obj 361 44 == 2;
#X obj 396 45 == 3;
#X obj 52 23 inlet;
#X obj 51 259 outlet~;
#X obj 52 148 AdditiveGateWave;
#X obj 161 148 SubtractiveGateWave;
#X obj 285 146 MixGateWave;
#X obj 363 147 SwitchWave;
#X obj 361 64 tgl 15 0 empty empty empty 17 7 0 10 -262144 -1 -1 0
1;
#X obj 397 66 tgl 15 0 empty empty empty 17 7 0 10 -262144 -1 -1 0
1;
#X obj 329 64 tgl 15 0 empty empty empty 17 7 0 10 -262144 -1 -1 0
1;
#X obj 293 66 tgl 15 0 empty empty empty 17 7 0 10 -262144 -1 -1 1
1;
#X obj 363 169 spigot~;
#X obj 285 170 spigot~;
#X obj 160 172 spigot~;
#X obj 50 172 spigot~;
#X connect 0 0 1 0;
#X connect 0 0 2 0;
#X connect 0 0 3 0;
#X connect 0 0 4 0;
#X connect 1 0 14 0;
#X connect 2 0 13 0;
#X connect 3 0 11 0;
#X connect 4 0 12 0;
#X connect 5 0 10 0;
#X connect 5 0 9 0;
#X connect 5 0 7 0;
#X connect 5 0 8 0;
#X connect 7 0 18 0;
#X connect 8 0 17 0;
#X connect 9 0 16 0;
#X connect 10 0 15 0;
#X connect 11 0 16 1;
#X connect 12 0 15 1;
#X connect 13 0 17 1;
#X connect 14 0 18 1;
#X connect 15 1 6 0;
#X connect 16 1 6 0;
#X connect 17 1 6 0;
#X connect 18 1 6 0;
#X restore -81 197 pd wave_distribution;
#N canvas 816 135 450 227 portamento 0;
#X obj 20 22 inlet;
#X obj 50 148 outlet;
#X obj 20 76 pack f f;
#X obj 50 125 line;
#X obj 174 70 f;
#X obj 174 31 bng 15 250 50 0 empty empty empty 17 7 0 10 -262144 -1
-1;
#X msg 87 87 set \$1;
#X obj 156 96 inlet;
#X obj 156 121 != 0;
#X obj 103 151 spigot;
#X obj 189 48 r gate_portamento_pitch;
#X obj 146 174 s gate_portamento_pitch;
#X obj 46 51 r gate_p8;
#X connect 0 0 5 0;
#X connect 0 0 2 0;
#X connect 2 0 3 0;
#X connect 3 0 1 0;
#X connect 3 0 9 0;
#X connect 4 0 6 0;
#X connect 5 0 4 0;
#X connect 6 0 3 0;
#X connect 7 0 8 0;
#X connect 8 0 9 1;
#X connect 9 0 11 0;
#X connect 10 0 4 1;
#X connect 12 0 2 1;
#X restore -81 90 pd portamento;
#N canvas 574 163 506 448 lpf 0;
#X obj 19 18 inlet~;
#X obj 21 417 outlet~;
#X obj 41 280 *;
#X obj 20 387 lop~;
#X msg 81 167 set \$1;
#X obj 85 102 list prepend;
#X obj 226 57 loadbang;
#X obj 79 191 iem_r;
#X obj 81 125 mergefilename;
#X symbolatom 81 147 15 0 0 0 - - -;
#X obj 75 77 r gate_lfo_assignment_p0;
#X obj 41 49 r gate_p0;
#X msg 225 78 gate_lfo_half_;
#X obj 78 213 - 1;
#X obj 78 236 * -1;
#X obj 41 366 mtof;
#X obj 144 215 inlet;
#X obj 144 238 list-idx;
#X obj 41 300 *;
#X obj 41 259 bondo 3;
#X obj 189 215 r gate_envelope_assignment_p0;
#X obj 41 345 line;
#X msg 41 322 \$1 10;
#X connect 0 0 3 0;
#X connect 2 0 18 0;
#X connect 3 0 1 0;
#X connect 4 0 7 0;
#X connect 5 0 8 0;
#X connect 6 0 12 0;
#X connect 7 0 13 0;
#X connect 8 0 9 0;
#X connect 9 0 4 0;
#X connect 10 0 5 0;
#X connect 11 0 19 0;
#X connect 12 0 5 1;
#X connect 13 0 14 0;
#X connect 14 0 19 1;
#X connect 15 0 3 1;
#X connect 16 0 17 0;
#X connect 17 0 19 2;
#X connect 18 0 22 0;
#X connect 19 0 2 0;
#X connect 19 1 2 1;
#X connect 19 2 18 1;
#X connect 20 0 17 1;
#X connect 21 0 15 0;
#X connect 22 0 21 0;
#X restore -80 241 pd lpf;
#N canvas 404 195 450 428 hpf 0;
#X obj 20 12 inlet~;
#X obj 22 401 outlet~;
#X obj 42 274 *;
#X msg 82 161 set \$1;
#X obj 86 96 list prepend;
#X obj 227 51 loadbang;
#X obj 80 185 iem_r;
#X obj 82 119 mergefilename;
#X symbolatom 82 141 15 0 0 0 - - -;
#X msg 226 72 gate_lfo_half_;
#X obj 79 207 - 1;
#X obj 79 230 * -1;
#X obj 42 358 mtof;
#X obj 21 381 hip~;
#X obj 78 71 r gate_lfo_assignment_p1;
#X obj 158 199 inlet;
#X obj 158 222 list-idx;
#X obj 42 295 *;
#X obj 42 253 bondo 3;
#X obj 203 199 r gate_envelope_assignment_p1;
#X obj 42 338 line;
#X msg 42 316 \$1 10;
#X obj 42 36 r gate_p1;
#X connect 0 0 13 0;
#X connect 2 0 17 0;
#X connect 3 0 6 0;
#X connect 4 0 7 0;
#X connect 5 0 9 0;
#X connect 6 0 10 0;
#X connect 7 0 8 0;
#X connect 8 0 3 0;
#X connect 9 0 4 1;
#X connect 10 0 11 0;
#X connect 11 0 18 1;
#X connect 12 0 13 1;
#X connect 13 0 1 0;
#X connect 14 0 4 0;
#X connect 15 0 16 0;
#X connect 16 0 18 2;
#X connect 17 0 21 0;
#X connect 18 0 2 0;
#X connect 18 1 2 1;
#X connect 18 2 17 1;
#X connect 19 0 16 1;
#X connect 20 0 12 0;
#X connect 21 0 20 0;
#X connect 22 0 18 0;
#X restore -81 264 pd hpf;
#N canvas 417 117 450 470 bpf 0;
#X obj 18 11 inlet~;
#X obj 18 443 outlet~;
#X obj 24 272 *;
#X obj 17 413 bp~;
#X obj 56 386 r gate_p3;
#X obj 24 35 r gate_p2;
#X msg 64 160 set \$1;
#X obj 64 95 list prepend;
#X obj 218 50 loadbang;
#X obj 64 118 mergefilename;
#X symbolatom 64 140 15 0 0 0 - - -;
#X obj 64 70 r gate_lfo_assignment_p2;
#X obj 64 184 iem_r;
#X obj 64 207 - 1;
#X obj 64 229 * -1;
#X msg 217 71 gate_lfo_;
#X obj 24 294 *;
#X obj 24 251 bondo 3;
#X obj 102 203 inlet;
#X obj 102 226 list-idx;
#X obj 147 201 r gate_envelope_assignment_p2;
#X obj 24 386 mtof;
#X obj 24 366 line;
#X msg 24 341 \$1 10;
#X connect 0 0 3 0;
#X connect 2 0 16 0;
#X connect 3 0 1 0;
#X connect 4 0 3 2;
#X connect 5 0 17 0;
#X connect 6 0 12 0;
#X connect 7 0 9 0;
#X connect 8 0 15 0;
#X connect 9 0 10 0;
#X connect 10 0 6 0;
#X connect 11 0 7 0;
#X connect 12 0 13 0;
#X connect 13 0 14 0;
#X connect 14 0 17 1;
#X connect 15 0 7 1;
#X connect 16 0 23 0;
#X connect 17 0 2 0;
#X connect 17 1 2 1;
#X connect 17 2 16 1;
#X connect 18 0 19 0;
#X connect 19 0 17 2;
#X connect 20 0 19 1;
#X connect 21 0 3 1;
#X connect 22 0 21 0;
#X connect 23 0 22 0;
#X restore -81 285 pd bpf;
#X obj -81 309 outlet~;
#N canvas 380 190 857 300 envelopes 0;
#X obj 150 46 r gate_envelope_1_a;
#X obj 161 66 r gate_envelope_1_d;
#X obj 172 85 r gate_envelope_1_s;
#X obj 184 104 r gate_envelope_1_r;
#X obj 139 127 Envelope;
#X obj 302 2 inlet;
#X obj 331 53 r gate_envelope_2_a;
#X obj 342 73 r gate_envelope_2_d;
#X obj 353 92 r gate_envelope_2_s;
#X obj 365 111 r gate_envelope_2_r;
#X obj 512 54 r gate_envelope_3_a;
#X obj 523 74 r gate_envelope_3_d;
#X obj 534 93 r gate_envelope_3_s;
#X obj 546 112 r gate_envelope_3_r;
#X obj 726 119 r gate_envelope_3_r;
#X obj 715 100 r gate_envelope_3_s;
#X obj 705 81 r gate_envelope_3_d;
#X obj 693 61 r gate_envelope_3_a;
#X obj 262 259 outlet;
#X msg 90 128 1;
#X obj 90 99 loadbang;
#X obj 262 235 pack f f f f f;
#X obj 286 205 bondo 5;
#X obj 320 134 Envelope;
#X obj 501 135 Envelope;
#X obj 682 142 Envelope;
#X connect 0 0 4 1;
#X connect 1 0 4 2;
#X connect 2 0 4 3;
#X connect 3 0 4 4;
#X connect 4 0 22 1;
#X connect 5 0 4 0;
#X connect 5 0 23 0;
#X connect 5 0 24 0;
#X connect 5 0 25 0;
#X connect 6 0 23 1;
#X connect 7 0 23 2;
#X connect 8 0 23 3;
#X connect 9 0 23 4;
#X connect 10 0 24 1;
#X connect 11 0 24 2;
#X connect 12 0 24 3;
#X connect 13 0 24 4;
#X connect 14 0 25 4;
#X connect 15 0 25 3;
#X connect 16 0 25 2;
#X connect 17 0 25 1;
#X connect 19 0 22 0;
#X connect 20 0 19 0;
#X connect 21 0 18 0;
#X connect 22 0 21 0;
#X connect 22 1 21 1;
#X connect 22 2 21 2;
#X connect 22 3 21 3;
#X connect 22 4 21 4;
#X connect 23 0 22 2;
#X connect 24 0 22 3;
#X connect 25 0 22 4;
#X restore 63 65 pd envelopes;
#N canvas 657 169 450 480 gain 0;
#X obj 16 11 inlet~;
#X obj 14 403 outlet~;
#X obj 38 262 *;
#X msg 79 148 set \$1;
#X obj 83 83 list prepend;
#X obj 224 38 loadbang;
#X obj 77 172 iem_r;
#X obj 79 106 mergefilename;
#X symbolatom 79 128 15 0 0 0 - - -;
#X obj 73 58 r gate_lfo_assignment_p4;
#X obj 38 35 r gate_p4;
#X obj 15 376 *~;
#X msg 223 59 gate_lfo_half_;
#X obj 78 193 - 1;
#X obj 76 216 * -1;
#X obj 139 183 inlet;
#X obj 139 206 list-idx;
#X obj 38 241 bondo 3;
#X obj 184 161 r gate_envelope_assignment_p4;
#X obj 184 182 + 1;
#X obj 38 286 *;
#X obj 38 83 / 128;
#X obj 38 356 vline~;
#X msg 38 331 \$1 10;
#X obj 38 308 Gain;
#X connect 0 0 11 0;
#X connect 2 0 20 0;
#X connect 3 0 6 0;
#X connect 4 0 7 0;
#X connect 5 0 12 0;
#X connect 6 0 13 0;
#X connect 7 0 8 0;
#X connect 8 0 3 0;
#X connect 9 0 4 0;
#X connect 10 0 21 0;
#X connect 11 0 1 0;
#X connect 12 0 4 1;
#X connect 13 0 14 0;
#X connect 14 0 17 1;
#X connect 15 0 16 0;
#X connect 16 0 17 2;
#X connect 17 0 2 0;
#X connect 17 1 2 1;
#X connect 17 2 20 1;
#X connect 18 0 19 0;
#X connect 19 0 16 1;
#X connect 20 0 24 0;
#X connect 21 0 17 0;
#X connect 22 0 11 1;
#X connect 23 0 22 0;
#X connect 24 0 23 0;
#X restore -80 218 pd gain;
#N canvas 515 229 489 439 vibrato 0;
#X obj 20 319 inlet;
#X obj 20 399 outlet;
#X obj 20 346 bondo 2;
#X obj 78 238 *;
#X msg 51 182 set \$1;
#X obj 55 117 list prepend;
#X obj 196 72 loadbang;
#X obj 49 206 iem_r;
#X obj 51 140 mergefilename;
#X symbolatom 51 162 15 0 0 0 - - -;
#X msg 195 93 gate_lfo_;
#X obj 45 92 r gate_lfo_assignment_p6;
#X msg 104 212 0.5;
#X obj 103 190 loadbang;
#X obj 20 375 +;
#X connect 0 0 2 0;
#X connect 2 0 14 0;
#X connect 2 1 14 1;
#X connect 3 0 2 1;
#X connect 4 0 7 0;
#X connect 5 0 8 0;
#X connect 6 0 10 0;
#X connect 7 0 3 0;
#X connect 8 0 9 0;
#X connect 9 0 4 0;
#X connect 10 0 5 1;
#X connect 11 0 5 0;
#X connect 12 0 3 1;
#X connect 13 0 12 0;
#X connect 14 0 1 0;
#X restore -81 112 pd vibrato;
#N canvas 728 255 450 300 pitch_bend 1;
#X obj 43 24 inlet;
#X obj 42 194 outlet;
#X obj 42 170 +;
#X obj 267 22 r gate_pitch_bend;
#X obj 89 24 loadbang;
#X msg 89 48 0;
#X obj 335 50 > 0;
#X obj 264 53 < 0;
#X obj 231 78 spigot;
#X obj 306 79 spigot;
#X obj 327 135 - 2;
#X obj 327 159 * -1;
#X obj 311 182 /;
#X obj 203 140 - 2;
#X obj 203 164 * -1;
#X obj 178 191 /;
#X obj 302 221 spigot;
#X obj 178 222 spigot;
#X obj 202 117 r \$0-pitch_down;
#X obj 327 112 r \$0-pitch_up;
#X floatatom 121 130 5 0 0 0 - - -;
#X floatatom 371 142 5 0 0 0 - - -;
#X connect 0 0 2 0;
#X connect 2 0 1 0;
#X connect 3 0 7 0;
#X connect 3 0 6 0;
#X connect 3 0 8 0;
#X connect 3 0 9 0;
#X connect 4 0 5 0;
#X connect 5 0 2 1;
#X connect 6 0 9 1;
#X connect 6 0 16 1;
#X connect 7 0 8 1;
#X connect 7 0 17 1;
#X connect 8 0 15 0;
#X connect 9 0 12 0;
#X connect 10 0 11 0;
#X connect 11 0 12 1;
#X connect 12 0 16 0;
#X connect 13 0 14 0;
#X connect 14 0 15 1;
#X connect 15 0 17 0;
#X connect 16 0 2 1;
#X connect 17 0 2 1;
#X connect 18 0 13 0;
#X connect 18 0 20 0;
#X connect 19 0 10 0;
#X connect 19 0 21 0;
#X restore -81 134 pd pitch_bend;
#N canvas 691 36 460 668 note_context 1;
#X obj 28 13 inlet;
#X obj 137 49 inlet;
#X obj 130 535 +;
#N canvas 682 188 475 327 key 0;
#N canvas 743 255 450 300 key_old 0;
#X obj 33 51 route 0 1;
#X obj 33 72 bng 15 250 50 0 empty empty empty 17 7 0 10 -262144 -1
-1;
#X obj 58 72 bng 15 250 50 0 empty empty empty 17 7 0 10 -262144 -1
-1;
#X msg 58 90 0 2 3 5 7 8 10;
#X msg 33 113 0 2 4 5 7 9 11;
#X obj 131 165 lister l;
#X obj 165 101 bng 15 250 50 0 empty empty empty 17 7 0 10 -262144
-1 -1;
#X obj 202 164 f;
#X obj 105 54 bng 15 250 50 0 empty empty empty 17 7 0 10 -262144 -1
-1;
#X obj 131 188 iter;
#X obj 131 213 +;
#X obj 130 239 list prepend;
#X obj 214 241 t l;
#X obj 180 54 r gate_controller_key_note;
#X obj 33 26 r gate_controller_key_type;
#X connect 0 0 1 0;
#X connect 0 1 2 0;
#X connect 1 0 4 0;
#X connect 2 0 3 0;
#X connect 3 0 5 0;
#X connect 4 0 5 0;
#X connect 5 0 9 0;
#X connect 6 0 5 0;
#X connect 6 0 11 1;
#X connect 7 0 10 1;
#X connect 8 0 7 0;
#X connect 8 0 11 1;
#X connect 9 0 10 0;
#X connect 10 0 11 0;
#X connect 11 0 12 0;
#X connect 12 0 11 1;
#X connect 13 0 7 0;
#X connect 13 0 6 0;
#X connect 14 0 8 0;
#X connect 14 0 0 0;
#X restore 187 14 pd key_old;
#X obj 44 60 unpack f f;
#X obj 44 82 route 0 1;
#X obj 44 105 bng 15 250 50 0 empty empty empty 17 7 0 10 -262144 -1
-1;
#X obj 69 105 bng 15 250 50 0 empty empty empty 17 7 0 10 -262144 -1
-1;
#X msg 69 123 0 2 3 5 7 8 10;
#X msg 44 146 0 2 4 5 7 9 11;
#X obj 165 186 lister l;
#X obj 165 206 iter;
#X obj 165 228 +;
#X obj 165 274 outlet;
#X obj 165 251 list prepend;
#X obj 248 251 t l;
#X obj 180 105 bng 15 250 50 0 empty empty empty 17 7 0 10 -262144
-1 -1;
#X obj 44 13 r gate_key;
#X obj 44 37 list-rev;
#X connect 1 0 2 0;
#X connect 1 1 13 0;
#X connect 1 1 9 1;
#X connect 2 0 3 0;
#X connect 2 1 4 0;
#X connect 3 0 6 0;
#X connect 4 0 5 0;
#X connect 5 0 7 0;
#X connect 6 0 7 0;
#X connect 7 0 8 0;
#X connect 8 0 9 0;
#X connect 9 0 11 0;
#X connect 11 0 12 0;
#X connect 11 0 10 0;
#X connect 12 0 11 1;
#X connect 13 0 11 1;
#X connect 14 0 15 0;
#X connect 15 0 1 0;
#X restore 198 216 pd key;
#X obj 93 374 lister l;
#X obj 319 490 inlet;
#X obj 103 645 outlet;
#X obj 178 173 +;
#X obj 205 130 r gate_controller_tonic;
#N canvas 880 244 463 440 chord 0;
#X obj 42 32 r gate_controller_chord;
#X obj 253 8 inlet;
#X obj 253 180 list append;
#X obj 166 301 list-idx;
#X obj 93 150 t b b b b;
#X obj 62 239 +;
#X obj 91 239 +;
#X obj 118 239 +;
#X obj 144 239 f;
#X msg 118 184 2;
#X obj 253 222 list append;
#X msg 90 184 4;
#X msg 62 184 6;
#X obj 208 276 lister l;
#X obj 204 206 bng 15 250 50 0 empty empty empty 17 7 0 10 -262144
-1 -1;
#X obj 166 357 outlet;
#X obj 166 325 list prepend;
#X obj 265 325 t l;
#X obj 402 206 bng 15 250 50 0 empty empty empty 17 7 0 10 -262144
-1 -1;
#N canvas 381 299 394 209 add 0;
#X obj 91 22 inlet;
#X obj 91 127 outlet;
#X obj 91 52 iter;
#X obj 145 52 bng 15 250 50 0 empty empty empty 17 7 0 10 -262144 -1
-1;
#X obj 91 96 list prepend;
#X obj 177 96 t l;
#X obj 91 75 + 12;
#X connect 0 0 3 0;
#X connect 0 0 2 0;
#X connect 2 0 6 0;
#X connect 3 0 4 1;
#X connect 4 0 5 0;
#X connect 4 0 1 0;
#X connect 5 0 4 1;
#X connect 6 0 4 0;
#X restore 316 201 pd add;
#N canvas 825 300 379 209 add 0;
#X obj 91 22 inlet;
#X obj 91 127 outlet;
#X obj 91 52 iter;
#X obj 145 52 bng 15 250 50 0 empty empty empty 17 7 0 10 -262144 -1
-1;
#X obj 91 96 list prepend;
#X obj 177 96 t l;
#X obj 91 73 + 12;
#X connect 0 0 3 0;
#X connect 0 0 2 0;
#X connect 2 0 6 0;
#X connect 3 0 4 1;
#X connect 4 0 5 0;
#X connect 4 0 1 0;
#X connect 5 0 4 1;
#X connect 6 0 4 0;
#X restore 316 158 pd add;
#X obj 253 250 lister l;
#X obj 42 93 f;
#X obj 155 58 bng 15 250 50 0 empty empty empty 17 7 0 10 -262144 -1
-1;
#X obj 131 58 bng 15 250 50 0 empty empty empty 17 7 0 10 -262144 -1
-1;
#X floatatom 61 342 5 0 0 0 - - -;
#X obj 265 363 l2s;
#X symbolatom 266 384 20 0 0 0 - - -;
#X connect 0 0 24 0;
#X connect 0 0 22 0;
#X connect 1 0 18 0;
#X connect 1 0 2 0;
#X connect 1 0 20 0;
#X connect 1 0 23 0;
#X connect 2 0 10 0;
#X connect 2 0 19 0;
#X connect 3 0 16 0;
#X connect 4 0 12 0;
#X connect 4 0 14 0;
#X connect 4 1 11 0;
#X connect 4 1 14 0;
#X connect 4 2 9 0;
#X connect 4 2 14 0;
#X connect 4 3 8 0;
#X connect 4 3 14 0;
#X connect 5 0 3 1;
#X connect 5 0 25 0;
#X connect 6 0 3 1;
#X connect 7 0 3 1;
#X connect 8 0 3 1;
#X connect 9 0 7 0;
#X connect 10 0 21 0;
#X connect 11 0 6 0;
#X connect 12 0 5 0;
#X connect 13 0 3 0;
#X connect 14 0 13 0;
#X connect 16 0 17 0;
#X connect 16 0 15 0;
#X connect 16 0 26 0;
#X connect 17 0 16 1;
#X connect 18 0 16 1;
#X connect 19 0 10 1;
#X connect 20 0 2 1;
#X connect 21 0 13 1;
#X connect 22 0 18 0;
#X connect 22 0 5 1;
#X connect 22 0 6 1;
#X connect 22 0 7 1;
#X connect 22 0 8 1;
#X connect 22 0 4 0;
#X connect 23 0 22 0;
#X connect 24 0 21 0;
#X connect 26 0 27 0;
#X restore 231 238 pd chord;
#X obj 289 424 list-idx;
#X obj 289 367 lister l;
#X obj 178 152 bondo;
#X obj 137 74 == 0;
#X obj 171 75 == 1;
#X obj 206 75 == 2;
#X obj 242 76 == 3;
#X obj 52 302 spigot;
#X obj 137 94 tgl 15 0 empty empty empty 17 7 0 10 -262144 -1 -1 0
1;
#X obj 171 94 tgl 15 0 empty empty empty 17 7 0 10 -262144 -1 -1 1
1;
#X obj 206 96 tgl 15 0 empty empty empty 17 7 0 10 -262144 -1 -1 0
1;
#X obj 242 96 tgl 15 0 empty empty empty 17 7 0 10 -262144 -1 -1 0
1;
#X obj 178 197 spigot;
#X obj 288 445 spigot;
#X obj 93 448 spigot;
#X obj 97 21 loadbang;
#X msg 97 41 1;
#X floatatom 304 79 5 0 0 0 - - -;
#X obj 10 57 bng 15 250 50 0 empty empty empty 17 7 0 10 -262144 -1
-1;
#X obj 93 425 list-idx;
#X obj 200 281 bng 15 250 50 0 empty empty empty 17 7 0 10 -262144
-1 -1;
#X obj 191 311 f;
#X obj 220 264 spigot;
#X obj 302 237 tgl 15 0 empty empty empty 17 7 0 10 -262144 -1 -1 1
1;
#X obj 305 214 r gate_force_note_shift;
#N canvas 635 167 639 347 pitch_bend_mod 1;
#X obj 42 38 inlet;
#X obj 205 20 inlet;
#X obj 69 171 list-idx;
#X obj 160 137 lister l;
#X obj 160 116 bng 15 250 50 0 empty empty empty 17 7 0 10 -262144
-1 -1;
#X obj 131 173 list-idx;
#X obj 10 171 list-idx;
#X obj 69 225 -;
#X obj 131 225 -;
#X obj 69 246 * -1;
#X obj 69 267 - 1;
#X obj 131 247 - 1;
#X obj 131 270 s \$0-pitch_up;
#X obj 69 291 s \$0-pitch_down;
#X obj 232 198 loadbang;
#X msg 232 219 0;
#X floatatom 272 260 5 0 0 0 - - -;
#X floatatom 208 307 5 0 0 0 - - -;
#X floatatom 155 194 5 0 0 0 - - -;
#X floatatom 85 191 5 0 0 0 - - -;
#X floatatom 18 193 5 0 0 0 - - -;
#X obj 205 72 list append;
#X obj 205 114 list append;
#N canvas 381 299 394 209 add 0;
#X obj 91 22 inlet;
#X obj 91 127 outlet;
#X obj 91 52 iter;
#X obj 145 52 bng 15 250 50 0 empty empty empty 17 7 0 10 -262144 -1
-1;
#X obj 91 96 list prepend;
#X obj 177 96 t l;
#X obj 91 75 + 12;
#X connect 0 0 3 0;
#X connect 0 0 2 0;
#X connect 2 0 6 0;
#X connect 3 0 4 1;
#X connect 4 0 5 0;
#X connect 4 0 1 0;
#X connect 5 0 4 1;
#X connect 6 0 4 0;
#X restore 268 93 pd add;
#N canvas 825 300 379 209 add 0;
#X obj 91 22 inlet;
#X obj 91 127 outlet;
#X obj 91 52 iter;
#X obj 145 52 bng 15 250 50 0 empty empty empty 17 7 0 10 -262144 -1
-1;
#X obj 91 96 list prepend;
#X obj 177 96 t l;
#X obj 91 73 + 12;
#X connect 0 0 3 0;
#X connect 0 0 2 0;
#X connect 2 0 6 0;
#X connect 3 0 4 1;
#X connect 4 0 5 0;
#X connect 4 0 1 0;
#X connect 5 0 4 1;
#X connect 6 0 4 0;
#X restore 268 50 pd add;
#X obj 42 59 t b f f f;
#X symbolatom 260 160 30 0 0 0 - - -;
#X obj 333 143 l2s;
#X obj 17 107 + 7;
#X obj 41 107 + 6;
#X obj 66 107 + 8;
#X connect 0 0 25 0;
#X connect 1 0 24 0;
#X connect 1 0 21 0;
#X connect 2 0 7 0;
#X connect 2 0 19 0;
#X connect 3 0 6 0;
#X connect 3 0 5 0;
#X connect 3 0 2 0;
#X connect 3 0 27 0;
#X connect 4 0 3 0;
#X connect 5 0 8 0;
#X connect 5 0 18 0;
#X connect 6 0 7 1;
#X connect 6 0 8 1;
#X connect 6 0 20 0;
#X connect 7 0 9 0;
#X connect 8 0 11 0;
#X connect 9 0 10 0;
#X connect 10 0 13 0;
#X connect 10 0 17 0;
#X connect 11 0 12 0;
#X connect 11 0 16 0;
#X connect 14 0 15 0;
#X connect 15 0 12 0;
#X connect 15 0 13 0;
#X connect 21 0 22 0;
#X connect 21 0 23 0;
#X connect 22 0 3 1;
#X connect 23 0 22 1;
#X connect 24 0 21 1;
#X connect 25 0 4 0;
#X connect 25 1 28 0;
#X connect 25 2 29 0;
#X connect 25 3 30 0;
#X connect 27 0 26 0;
#X connect 28 0 6 1;
#X connect 29 0 2 1;
#X connect 30 0 5 1;
#X restore 113 469 pd pitch_bend_mod;
#X obj 139 554 r gate_controller_octave_mod;
#X obj 139 596 - 3;
#X obj 139 616 * 12;
#X obj 100 555 f;
#X obj 100 575 bondo 2;
#X obj 103 621 +;
#X connect 0 0 12 0;
#X connect 0 0 17 0;
#X connect 0 0 28 0;
#X connect 0 0 31 1;
#X connect 0 0 30 0;
#X connect 1 0 13 0;
#X connect 1 0 14 0;
#X connect 1 0 15 0;
#X connect 1 0 16 0;
#X connect 1 0 27 0;
#X connect 2 0 39 0;
#X connect 3 0 4 1;
#X connect 3 0 9 0;
#X connect 3 0 35 1;
#X connect 4 0 29 0;
#X connect 5 0 2 1;
#X connect 7 0 22 0;
#X connect 8 0 12 1;
#X connect 9 0 11 1;
#X connect 9 0 32 0;
#X connect 10 0 23 0;
#X connect 11 0 10 0;
#X connect 12 0 7 0;
#X connect 12 1 7 1;
#X connect 13 0 18 0;
#X connect 14 0 19 0;
#X connect 15 0 20 0;
#X connect 16 0 21 0;
#X connect 17 0 39 0;
#X connect 18 0 17 1;
#X connect 19 0 24 1;
#X connect 20 0 22 1;
#X connect 21 0 23 1;
#X connect 22 0 2 0;
#X connect 23 0 2 0;
#X connect 24 0 2 0;
#X connect 25 0 26 0;
#X connect 26 0 18 0;
#X connect 29 0 24 0;
#X connect 30 0 31 0;
#X connect 30 0 11 0;
#X connect 30 0 4 0;
#X connect 31 0 29 1;
#X connect 31 0 10 1;
#X connect 31 0 35 0;
#X connect 32 0 30 0;
#X connect 33 0 32 1;
#X connect 34 0 33 0;
#X connect 36 0 40 1;
#X connect 37 0 38 0;
#X connect 38 0 41 1;
#X connect 39 0 40 0;
#X connect 40 0 41 0;
#X connect 40 1 37 0;
#X connect 41 0 6 0;
#X restore -81 62 pd note_context;
#X obj -81 33 unpack f f f f;
#X obj 187 50 bng 15 250 50 0 empty empty empty 17 7 0 10 -262144 -1
-1;
#N canvas 497 315 450 300 suboscillator 0;
#X obj 21 19 inlet;
#X obj 22 216 outlet~;
#X obj 21 104 pulsewave 0 0.5;
#X obj 22 192 *~;
#X obj 37 126 r gate_suboscillator_gain;
#X obj 21 78 / 2;
#X obj 64 13 r gate_suboscillator_octave;
#X obj 64 35 + 1;
#X obj 64 57 * 2;
#X obj 37 147 / 128;
#X obj 37 169 Gain;
#X connect 0 0 5 0;
#X connect 2 0 3 0;
#X connect 3 0 1 0;
#X connect 4 0 9 0;
#X connect 5 0 2 0;
#X connect 6 0 7 0;
#X connect 7 0 8 0;
#X connect 8 0 5 1;
#X connect 9 0 10 0;
#X connect 10 0 3 1;
#X restore 49 197 pd suboscillator;
#X connect 0 0 14 0;
#X connect 0 0 15 0;
#X connect 1 0 2 0;
#X connect 2 0 3 0;
#X connect 2 0 16 0;
#X connect 3 0 10 0;
#X connect 4 0 11 0;
#X connect 5 0 6 0;
#X connect 6 0 7 0;
#X connect 7 0 8 0;
#X connect 9 0 5 1;
#X connect 9 0 6 1;
#X connect 9 0 7 1;
#X connect 9 0 10 1;
#X connect 10 0 5 0;
#X connect 11 0 12 0;
#X connect 12 0 1 0;
#X connect 13 0 4 0;
#X connect 14 0 13 0;
#X connect 14 1 4 1;
#X connect 14 1 9 0;
#X connect 14 2 13 1;
#X connect 14 3 13 2;
#X connect 16 0 10 0;
