#N canvas 631 44 756 471 10;
#X declare -lib mrpeach;
#X obj 17 13 import mrpeach;
#X obj 146 26 udpreceive 6449;
#X obj 146 52 unpackOSC;
#X obj 146 76 routeOSC /harmonic;
#X obj 146 164 route 0 1 2 3 4 5 6 7 8 9 10 11;
#X obj 146 99 unpack f f;
#X obj 203 120 / 100;
#X obj 146 141 pack;
#X obj 143 236 osc~;
#X obj 180 214 * 2;
#X obj 180 236 osc~;
#X obj 142 257 *~;
#X obj 179 258 *~;
#X obj 216 214 * 3;
#X obj 216 235 osc~;
#X obj 215 257 *~;
#X obj 249 233 osc~;
#X obj 248 255 *~;
#X obj 284 235 osc~;
#X obj 283 257 *~;
#X obj 249 212 * 4;
#X obj 284 214 * 5;
#X obj 321 234 osc~;
#X obj 320 256 *~;
#X obj 353 234 osc~;
#X obj 352 256 *~;
#X obj 386 232 osc~;
#X obj 385 254 *~;
#X obj 425 232 osc~;
#X obj 424 254 *~;
#X obj 321 212 * 6;
#X obj 353 213 * 7;
#X obj 386 211 * 8;
#X obj 425 211 * 9;
#X obj 89 166 inlet;
#X obj 142 346 outlet~;
#X obj 459 230 osc~;
#X obj 458 252 *~;
#X obj 496 229 osc~;
#X obj 495 251 *~;
#X obj 535 229 osc~;
#X obj 534 251 *~;
#X obj 459 209 * 10;
#X obj 495 208 * 11;
#X obj 535 208 * 12;
#X connect 1 0 2 0;
#X connect 2 0 3 0;
#X connect 3 0 5 0;
#X connect 4 0 11 1;
#X connect 4 1 12 1;
#X connect 4 2 15 1;
#X connect 4 3 17 1;
#X connect 4 4 19 1;
#X connect 4 5 23 1;
#X connect 4 6 25 1;
#X connect 4 7 27 1;
#X connect 4 8 29 1;
#X connect 4 9 37 1;
#X connect 4 10 39 1;
#X connect 4 11 41 1;
#X connect 5 0 7 0;
#X connect 5 1 6 0;
#X connect 6 0 7 1;
#X connect 7 0 4 0;
#X connect 8 0 11 0;
#X connect 9 0 10 0;
#X connect 10 0 12 0;
#X connect 11 0 35 0;
#X connect 12 0 35 0;
#X connect 13 0 14 0;
#X connect 14 0 15 0;
#X connect 15 0 35 0;
#X connect 16 0 17 0;
#X connect 17 0 35 0;
#X connect 18 0 19 0;
#X connect 19 0 35 0;
#X connect 20 0 16 0;
#X connect 21 0 18 0;
#X connect 22 0 23 0;
#X connect 23 0 35 0;
#X connect 24 0 25 0;
#X connect 25 0 35 0;
#X connect 26 0 27 0;
#X connect 27 0 35 0;
#X connect 28 0 29 0;
#X connect 29 0 35 0;
#X connect 30 0 22 0;
#X connect 31 0 24 0;
#X connect 32 0 26 0;
#X connect 33 0 28 0;
#X connect 34 0 8 0;
#X connect 34 0 9 0;
#X connect 34 0 13 0;
#X connect 34 0 20 0;
#X connect 34 0 21 0;
#X connect 34 0 30 0;
#X connect 34 0 31 0;
#X connect 34 0 32 0;
#X connect 34 0 33 0;
#X connect 34 0 42 0;
#X connect 34 0 43 0;
#X connect 34 0 44 0;
#X connect 36 0 37 0;
#X connect 37 0 35 0;
#X connect 38 0 39 0;
#X connect 39 0 35 0;
#X connect 40 0 41 0;
#X connect 41 0 35 0;
#X connect 42 0 36 0;
#X connect 43 0 38 0;
#X connect 44 0 40 0;
