#N canvas 732 341 450 300 10;
#X obj 122 209 dac~;
#X obj 120 144 osc~ 440;
#X obj 123 181 spigot~;
#X obj 209 141 tgl 15 0 empty empty empty 17 7 0 10 -262144 -1 -1 0
127;
#X obj 169 33 notein;
#X connect 1 0 2 0;
#X connect 2 1 0 1;
#X connect 2 1 0 0;
#X connect 3 0 2 1;
#X connect 4 1 3 0;
