#N canvas 399 106 572 300 10;
#X obj 18 13 inlet;
#X obj 134 70 trianglewave;
#X obj 268 71 phasor~;
#X obj 268 135 *~;
#X obj 133 128 *~;
#X obj 18 133 *~;
#X obj 18 161 outlet~;
#N canvas 574 203 462 300 pulse_width 0;
#X obj 1 273 outlet;
#X obj 1 245 *;
#X obj -10 222 bondo 2;
#X obj 42 133 r gate_p5;
#X msg -9 129 set \$1;
#X obj -5 64 list prepend;
#X obj 136 19 loadbang;
#X obj -11 153 iem_r;
#X obj -9 87 mergefilename;
#X symbolatom -9 109 15 0 0 0 - - -;
#X msg 135 40 gate_lfo_half_;
#X obj -15 39 r gate_lfo_assignment_p5;
#X obj -12 173 * 0.45;
#X obj 40 157 / 1000;
#X obj 39 177 * 0.45;
#X obj 36 201 + 0.05;
#X obj -11 193 + 0.05;
#X connect 1 0 0 0;
#X connect 2 0 1 0;
#X connect 2 1 1 1;
#X connect 3 0 13 0;
#X connect 4 0 7 0;
#X connect 5 0 8 0;
#X connect 6 0 10 0;
#X connect 7 0 12 0;
#X connect 8 0 9 0;
#X connect 9 0 4 0;
#X connect 10 0 5 1;
#X connect 11 0 5 0;
#X connect 12 0 16 0;
#X connect 13 0 14 0;
#X connect 14 0 15 0;
#X connect 15 0 2 1;
#X connect 16 0 2 0;
#X restore 117 46 pd pulse_width;
#X obj 18 69 pulsewave 440 0.1;
#X obj 283 90 r gate_sawtooth_mix;
#X obj 148 90 r gate_triangle_mix;
#X obj 33 88 r gate_pulse_mix;
#X obj 283 112 Gain;
#X obj 148 109 Gain;
#X obj 33 109 Gain;
#X obj 415 68 osc~;
#X obj 414 135 *~;
#X obj 429 113 Gain;
#X obj 429 91 r gate_sine_mix;
#X connect 0 0 1 0;
#X connect 0 0 2 0;
#X connect 0 0 8 0;
#X connect 0 0 15 0;
#X connect 1 0 4 0;
#X connect 2 0 3 0;
#X connect 3 0 6 0;
#X connect 4 0 6 0;
#X connect 5 0 6 0;
#X connect 7 0 8 2;
#X connect 8 0 5 0;
#X connect 9 0 12 0;
#X connect 10 0 13 0;
#X connect 11 0 14 0;
#X connect 12 0 3 1;
#X connect 13 0 4 1;
#X connect 14 0 5 1;
#X connect 15 0 16 0;
#X connect 16 0 6 0;
#X connect 17 0 16 1;
#X connect 18 0 17 0;
