#N canvas 366 31 424 168 10;
#X obj 104 67 osc~;
#X obj 104 122 outlet~;
#X obj 156 40 inlet;
#X obj 92 41 \$1;
#X obj 104 17 inlet;
#X obj 299 25 loadbang;
#X obj 17 10 loadbang;
#X obj 256 27 inlet;
#X obj 256 48 \$2;
#X obj 103 96 expr~ if($v1 > $f2 \, 1 \, -1);
#X obj 256 72 expr $f1 * 2 - 1;
#X connect 0 0 9 0;
#X connect 2 0 0 1;
#X connect 3 0 0 0;
#X connect 4 0 3 0;
#X connect 5 0 8 0;
#X connect 6 0 3 0;
#X connect 7 0 8 0;
#X connect 8 0 10 0;
#X connect 9 0 1 0;
#X connect 10 0 9 1;
