#N canvas 578 78 756 486 10;
#X obj 129 187 osc~;
#X obj 166 65 * 2;
#X obj 166 187 osc~;
#X obj 128 238 *~;
#X obj 165 239 *~;
#X obj 202 65 * 3;
#X obj 202 186 osc~;
#X obj 201 238 *~;
#X obj 235 184 osc~;
#X obj 234 236 *~;
#X obj 270 186 osc~;
#X obj 269 238 *~;
#X obj 235 63 * 4;
#X obj 270 65 * 5;
#X obj 307 185 osc~;
#X obj 306 237 *~;
#X obj 339 185 osc~;
#X obj 338 237 *~;
#X obj 372 183 osc~;
#X obj 371 235 *~;
#X obj 411 183 osc~;
#X obj 410 235 *~;
#X obj 307 63 * 6;
#X obj 339 64 * 7;
#X obj 372 62 * 8;
#X obj 411 62 * 9;
#X obj 444 181 osc~;
#X obj 444 233 *~;
#X obj 481 179 osc~;
#X obj 481 232 *~;
#X obj 521 180 osc~;
#X obj 520 232 *~;
#X obj 445 60 * 10;
#X obj 481 59 * 11;
#X obj 521 59 * 12;
#X obj 129 65 * 1;
#X obj 50 24 inlet;
#X obj 149 453 outlet~;
#X obj 128 260 *~ 1;
#X obj 127 284 /~;
#X obj 164 285 /~;
#X obj 201 284 /~;
#X obj 232 284 /~;
#X obj 269 285 /~;
#X obj 306 284 /~;
#X obj 337 284 /~;
#X obj 371 285 /~;
#X obj 410 284 /~;
#X obj 442 284 /~;
#X obj 479 285 /~;
#X obj 518 284 /~;
#X obj 165 261 *~ 2;
#X obj 202 260 *~ 3;
#X obj 233 260 *~ 4;
#X obj 270 261 *~ 5;
#X obj 307 260 *~ 6;
#X obj 338 260 *~ 7;
#X obj 372 261 *~ 8;
#X obj 411 260 *~ 9;
#X obj 443 260 *~ 10;
#X obj 480 261 *~ 11;
#X obj 519 260 *~ 12;
#X obj 50 91 phasor~;
#X obj 122 316 -~;
#X obj 121 338 -~;
#X obj 121 359 -~;
#X obj 120 381 -~;
#X obj 119 404 -~;
#X obj 118 426 -~;
#X obj 153 317 -~;
#X obj 152 339 -~;
#X obj 152 360 -~;
#X obj 151 382 -~;
#X obj 150 405 -~;
#X obj 149 428 -~;
#X obj 143 90 r gate_s_harmonic_1;
#X obj 180 110 r gate_s_harmonic_2;
#X obj 216 132 r gate_s_harmonic_3;
#X obj 249 151 r gate_s_harmonic_4;
#X obj 386 149 r gate_s_harmonic_8;
#X obj 353 128 r gate_s_harmonic_7;
#X obj 321 109 r gate_s_harmonic_6;
#X obj 284 89 r gate_s_harmonic_5;
#X obj 425 87 r gate_s_harmonic_9;
#X obj 459 108 r gate_s_harmonic_10;
#X obj 496 127 r gate_s_harmonic_11;
#X obj 535 150 r gate_s_harmonic_12;
#X obj 535 209 Gain;
#X obj 496 210 Gain;
#X obj 459 210 Gain;
#X obj 425 210 Gain;
#X obj 386 211 Gain;
#X obj 353 213 Gain;
#X obj 321 213 Gain;
#X obj 284 215 Gain;
#X obj 249 214 Gain;
#X obj 216 215 Gain;
#X obj 180 216 Gain;
#X obj 143 215 Gain;
#X connect 0 0 3 0;
#X connect 1 0 2 0;
#X connect 2 0 4 0;
#X connect 3 0 38 0;
#X connect 3 0 63 1;
#X connect 4 0 51 0;
#X connect 4 0 64 1;
#X connect 5 0 6 0;
#X connect 6 0 7 0;
#X connect 7 0 52 0;
#X connect 7 0 65 1;
#X connect 8 0 9 0;
#X connect 9 0 53 0;
#X connect 9 0 66 1;
#X connect 10 0 11 0;
#X connect 11 0 54 0;
#X connect 11 0 67 1;
#X connect 12 0 8 0;
#X connect 13 0 10 0;
#X connect 14 0 15 0;
#X connect 15 0 55 0;
#X connect 15 0 68 1;
#X connect 16 0 17 0;
#X connect 17 0 56 0;
#X connect 17 0 69 1;
#X connect 18 0 19 0;
#X connect 19 0 57 0;
#X connect 19 0 70 1;
#X connect 20 0 21 0;
#X connect 21 0 58 0;
#X connect 21 0 71 1;
#X connect 22 0 14 0;
#X connect 23 0 16 0;
#X connect 24 0 18 0;
#X connect 25 0 20 0;
#X connect 26 0 27 0;
#X connect 27 0 59 0;
#X connect 27 0 72 1;
#X connect 28 0 29 0;
#X connect 29 0 60 0;
#X connect 29 0 73 1;
#X connect 30 0 31 0;
#X connect 31 0 61 0;
#X connect 31 0 74 1;
#X connect 32 0 26 0;
#X connect 33 0 28 0;
#X connect 34 0 30 0;
#X connect 35 0 0 0;
#X connect 36 0 5 0;
#X connect 36 0 12 0;
#X connect 36 0 13 0;
#X connect 36 0 22 0;
#X connect 36 0 23 0;
#X connect 36 0 24 0;
#X connect 36 0 25 0;
#X connect 36 0 32 0;
#X connect 36 0 33 0;
#X connect 36 0 34 0;
#X connect 36 0 1 0;
#X connect 36 0 35 0;
#X connect 36 0 62 0;
#X connect 38 0 39 1;
#X connect 51 0 40 1;
#X connect 52 0 41 1;
#X connect 53 0 42 1;
#X connect 54 0 43 1;
#X connect 55 0 44 1;
#X connect 56 0 45 1;
#X connect 57 0 46 1;
#X connect 58 0 47 1;
#X connect 59 0 48 1;
#X connect 60 0 49 1;
#X connect 61 0 50 1;
#X connect 62 0 63 0;
#X connect 63 0 64 0;
#X connect 64 0 65 0;
#X connect 65 0 66 0;
#X connect 66 0 67 0;
#X connect 67 0 68 0;
#X connect 68 0 69 0;
#X connect 69 0 70 0;
#X connect 70 0 71 0;
#X connect 71 0 72 0;
#X connect 72 0 73 0;
#X connect 73 0 74 0;
#X connect 74 0 37 0;
#X connect 75 0 98 0;
#X connect 76 0 97 0;
#X connect 77 0 96 0;
#X connect 78 0 95 0;
#X connect 79 0 91 0;
#X connect 80 0 92 0;
#X connect 81 0 93 0;
#X connect 82 0 94 0;
#X connect 83 0 90 0;
#X connect 84 0 89 0;
#X connect 85 0 88 0;
#X connect 86 0 87 0;
#X connect 87 0 31 1;
#X connect 88 0 29 1;
#X connect 89 0 27 1;
#X connect 90 0 21 1;
#X connect 91 0 19 1;
#X connect 92 0 17 1;
#X connect 93 0 15 1;
#X connect 94 0 11 1;
#X connect 95 0 9 1;
#X connect 96 0 7 1;
#X connect 97 0 4 1;
#X connect 98 0 3 1;
