#N canvas 631 75 450 300 10;
#X obj 152 79 trianglewave 440;
#X obj 25 79 phasor~ 440;
#X obj 98 79 osc~ 440;
#X obj 256 79 pulsewave 440 0.1;
#N canvas 439 294 333 300 wave_switch 0;
#X obj 175 95 tgl 15 0 empty empty empty 17 7 0 10 -262144 -1 -1 0
1;
#X obj 81 94 tgl 15 0 empty empty empty 17 7 0 10 -262144 -1 -1 0 1
;
#X obj 222 96 tgl 15 0 empty empty empty 17 7 0 10 -262144 -1 -1 0
1;
#X obj 81 31 expr if($f1 == 0 \, 1 \, 0) \; if($f1 == 1 \, 1 \, 0)
\; if($f1 == 2 \, 1 \, 0) \; if($f1 == 3 \, 1 \, 0);
#X obj 128 94 tgl 15 0 empty empty empty 17 7 0 10 -262144 -1 -1 0
1;
#X obj 27 135 spigot~;
#X obj 84 158 spigot~;
#X obj 141 182 spigot~;
#X obj 66 180 outlet~;
#X obj 123 204 outlet~;
#X obj 181 229 outlet~;
#X obj 231 252 outlet~;
#X obj 193 208 spigot~;
#X obj 192 185 inlet~;
#X obj 142 161 inlet~;
#X obj 83 137 inlet~;
#X obj 26 109 inlet~;
#X obj 81 10 r gate_switch_wave_form;
#X connect 0 0 7 1;
#X connect 1 0 5 1;
#X connect 2 0 12 1;
#X connect 3 0 1 0;
#X connect 3 1 4 0;
#X connect 3 2 0 0;
#X connect 3 3 2 0;
#X connect 4 0 6 1;
#X connect 5 1 8 0;
#X connect 6 1 9 0;
#X connect 7 1 10 0;
#X connect 12 1 11 0;
#X connect 13 0 12 0;
#X connect 14 0 7 0;
#X connect 15 0 6 0;
#X connect 16 0 5 0;
#X connect 17 0 3 0;
#X restore 80 144 pd wave_switch;
#X obj 33 17 inlet;
#X obj 98 176 outlet~;
#N canvas 574 203 462 300 pulse_width 0;
#X obj 1 273 outlet;
#X obj 1 245 *;
#X obj -10 222 bondo 2;
#X obj 42 133 r gate_p5;
#X msg -9 129 set \$1;
#X obj -5 64 list prepend;
#X obj 136 19 loadbang;
#X obj -11 153 iem_r;
#X obj -9 87 mergefilename;
#X symbolatom -9 109 15 0 0 0 - - -;
#X msg 135 40 gate_lfo_half_;
#X obj -15 39 r gate_lfo_assignment_p5;
#X obj -12 173 * 0.45;
#X obj -11 193 + 0.5;
#X obj 40 157 / 1000;
#X obj 39 177 * 0.45;
#X obj 36 201 + 0.5;
#X connect 1 0 0 0;
#X connect 2 0 1 0;
#X connect 2 1 1 1;
#X connect 3 0 14 0;
#X connect 4 0 7 0;
#X connect 5 0 8 0;
#X connect 6 0 10 0;
#X connect 7 0 12 0;
#X connect 8 0 9 0;
#X connect 9 0 4 0;
#X connect 10 0 5 1;
#X connect 11 0 5 0;
#X connect 12 0 13 0;
#X connect 13 0 2 0;
#X connect 14 0 15 0;
#X connect 15 0 16 0;
#X connect 16 0 2 1;
#X restore 265 44 pd pulse_width;
#X connect 0 0 4 2;
#X connect 1 0 4 0;
#X connect 2 0 4 1;
#X connect 3 0 4 3;
#X connect 4 0 6 0;
#X connect 4 1 6 0;
#X connect 4 2 6 0;
#X connect 4 3 6 0;
#X connect 5 0 1 0;
#X connect 5 0 2 0;
#X connect 5 0 0 0;
#X connect 5 0 3 0;
#X connect 7 0 3 2;
