#N canvas 713 66 450 294 10;
#X obj 76 25 inlet;
#X obj 61 51 \$1;
#X obj 8 19 loadbang;
#X obj 27 126 phasor~ 440;
#X obj 112 127 phasor~ 440;
#X obj 112 103 *~ -1;
#X obj 112 149 *~ 2;
#X obj 27 148 *~ 2;
#X obj 27 174 -~ 1;
#X obj 111 174 -~ 1;
#X obj 111 198 clip~ 0 1;
#X obj 26 198 clip~ 0 1;
#X obj 25 229 expr~ ($v1 + $v2) * 2 - 1;
#X obj 24 254 outlet~;
#X connect 0 0 1 0;
#X connect 1 0 3 0;
#X connect 1 0 5 0;
#X connect 2 0 1 0;
#X connect 3 0 7 0;
#X connect 4 0 6 0;
#X connect 5 0 4 0;
#X connect 6 0 9 0;
#X connect 7 0 8 0;
#X connect 8 0 11 0;
#X connect 9 0 10 0;
#X connect 10 0 12 1;
#X connect 11 0 12 0;
#X connect 12 0 13 0;
