#N canvas 431 110 476 300 10;
#X declare -lib mrpeach;
#X obj 192 192 snare;
#X obj 216 174 bass_drum;
#X obj 266 136 HH_open;
#X obj 241 155 HH_closed;
#X obj 220 256 dac~;
#X obj 222 231 *~;
#X obj 284 200 knob 32 32 0 1 0 0 empty empty empty 0 -8 0 8 -262144
-1 -1 0 1;
#X obj 44 120 notein 1;
#X obj 4 18 tgl 15 0 empty empty empty 17 7 0 10 -262144 -1 -1 0 1
;
#X msg 4 42 \; pd dsp \$1;
#X obj 192 78 spigot;
#X obj 192 109 route 60 61 62 63;
#X obj 337 45 import mrpeach;
#X obj 334 111 udpreceive 6449;
#X obj 334 137 unpackOSC;
#X obj 334 162 routeOSC /msg;
#X obj 334 189 routeOSC /midi;
#X obj 335 212 route 144;
#X msg 361 235 \$1;
#X obj 88 141 s midi_velocity;
#X obj 37 161 s midi_note;
#X obj 230 53 r midi_velocity;
#X obj 172 25 r midi_note;
#X obj 381 258 s midi_note;
#X msg 332 238 \$2;
#X obj 282 258 s midi_velocity;
#X obj 137 61 bng 15 250 50 0 empty empty empty 17 7 0 10 -262144 -1
-1;
#X connect 0 0 5 0;
#X connect 1 0 5 0;
#X connect 2 0 5 0;
#X connect 3 0 5 0;
#X connect 5 0 4 0;
#X connect 5 0 4 1;
#X connect 6 0 5 1;
#X connect 7 0 20 0;
#X connect 7 1 19 0;
#X connect 8 0 9 0;
#X connect 10 0 11 0;
#X connect 11 0 0 0;
#X connect 11 1 1 0;
#X connect 11 2 3 0;
#X connect 11 3 2 0;
#X connect 13 0 14 0;
#X connect 14 0 15 0;
#X connect 15 0 16 0;
#X connect 16 0 17 0;
#X connect 17 0 24 0;
#X connect 17 0 18 0;
#X connect 18 0 23 0;
#X connect 21 0 10 1;
#X connect 22 0 10 0;
#X connect 22 0 26 0;
#X connect 24 0 25 0;
