#N canvas 584 171 450 288 10;
#X obj 136 34 bng 15 250 50 0 empty empty empty 17 7 0 10 -262144 -1
-1;
#X obj 136 56 pack f f;
#X msg 136 81 1 \$1 \, 0 \$2 \$1;
#X obj 136 107 vline~;
#X obj 121 146 *~;
#X obj 68 57 osc~ 165;
#X obj 54 83 +~;
#X obj 14 33 noise~;
#X msg 184 33 100;
#X obj 13 57 hip~ 190;
#X obj 54 108 bp~ 1200 0.2;
#X obj 136 10 inlet;
#X obj 184 10 loadbang;
#X obj 121 176 outlet~;
#X connect 0 0 1 0;
#X connect 1 0 2 0;
#X connect 2 0 3 0;
#X connect 3 0 4 1;
#X connect 4 0 13 0;
#X connect 5 0 6 1;
#X connect 6 0 10 0;
#X connect 7 0 9 0;
#X connect 8 0 1 1;
#X connect 9 0 6 0;
#X connect 10 0 4 0;
#X connect 11 0 0 0;
#X connect 12 0 8 0;
