#N canvas 521 194 450 300 10;
#X obj 32 26 inlet;
#X obj 32 47 bng 15 250 50 0 empty empty empty 17 7 0 10 -262144 -1
-1;
#X obj 112 91 line~;
#X obj 32 92 line~;
#X obj 33 117 osc~;
#X obj 33 141 *~;
#X msg 112 68 1 \, 0 200;
#X obj 34 169 outlet~;
#X msg 31 68 350 \, 100 20;
#X connect 0 0 1 0;
#X connect 1 0 6 0;
#X connect 1 0 8 0;
#X connect 2 0 5 1;
#X connect 3 0 4 0;
#X connect 4 0 5 0;
#X connect 5 0 7 0;
#X connect 6 0 2 0;
#X connect 8 0 3 0;
