#N canvas 30 161 795 480 10;
#X obj 358 186 +;
#X floatatom 309 357 5 0 0 0 - - -;
#X obj 59 163 list append;
#X obj 147 187 t l;
#X obj 167 147 bng 15 250 50 0 empty empty empty 17 7 0 10 -262144
-1 -1;
#X obj 83 39 == 0;
#X obj 72 62 tgl 15 0 empty empty empty 17 7 0 10 -262144 -1 -1 0 1
;
#X obj 38 84 spigot;
#X obj 48 251 ==;
#X obj 139 41 != 0;
#X obj 128 69 tgl 15 0 empty empty empty 17 7 0 10 -262144 -1 -1 0
1;
#X obj 91 88 spigot;
#X obj 22 190 lister l;
#X obj 19 227 iter;
#X obj 19 137 bng 15 250 50 0 empty empty empty 17 7 0 10 -262144 -1
-1;
#X obj 89 248 counter;
#X obj 73 278 spigot;
#X floatatom 132 300 5 0 0 0 - - -;
#X obj 51 327 list split;
#X obj 85 358 list split 1;
#X obj 58 389 list append;
#X obj 270 123 lister l;
#X obj 79 421 bng 15 250 50 0 empty empty empty 17 7 0 10 -262144 -1
-1;
#X obj 325 20 tgl 15 0 empty empty empty 17 7 0 10 -262144 -1 -1 1
1;
#X obj 327 43 metro 170;
#X obj 269 167 iter;
#X obj 484 212 t l;
#X obj 441 91 lister l;
#X obj 404 67 bng 15 250 50 0 empty empty empty 17 7 0 10 -262144 -1
-1;
#X obj 434 115 iter;
#X obj 352 99 bng 15 250 50 0 empty empty empty 17 7 0 10 -262144 -1
-1;
#X obj 356 213 list prepend;
#X obj 388 238 list length;
#X obj 344 284 counter;
#X obj 391 263 - 1;
#X obj 300 312 list-idx;
#X obj 293 263 lister l;
#X obj 398 12 loadbang;
#X obj 282 144 sort;
#X obj 553 105 until;
#X obj 553 157 counter;
#X obj 585 131 bng 15 250 50 0 empty empty empty 17 7 0 10 -262144
-1 -1;
#X obj 552 199 * 12;
#X obj 553 240 *;
#X obj 635 334 t l;
#X obj 552 264 list prepend;
#X obj 523 84 bng 15 250 50 0 empty empty empty 17 7 0 10 -262144 -1
-1;
#X obj 624 148 bng 15 250 50 0 empty empty empty 17 7 0 10 -262144
-1 -1;
#X obj 275 340 bng 15 250 50 0 empty empty empty 17 7 0 10 -262144
-1 -1;
#X obj 308 388 outlet;
#X obj 364 397 outlet;
#X msg 389 344 0;
#X msg 356 349 127;
#X obj 553 54 inlet;
#X obj 553 77 f;
#X obj 623 60 inlet;
#X obj 261 70 inlet;
#X obj 364 371 spigot;
#X obj 467 270 != 0;
#X obj 212 207 list length;
#X obj 473 302 r arpeggiate;
#X obj 470 327 == 0;
#X obj 456 352 spigot;
#X obj 190 319 bng 15 250 50 0 empty empty empty 17 7 0 10 -262144
-1 -1;
#X obj 152 240 r arpeggiator_phase_reset;
#X obj 171 271 spigot;
#X obj 193 20 inlet;
#X obj 29 -17 r gate_midi_pack;
#X obj 29 5 unpack f f;
#X connect 0 0 31 0;
#X connect 1 0 49 0;
#X connect 2 0 3 0;
#X connect 2 0 12 1;
#X connect 2 0 21 1;
#X connect 2 0 28 0;
#X connect 3 0 2 1;
#X connect 4 0 2 1;
#X connect 5 0 6 0;
#X connect 6 0 7 1;
#X connect 7 0 8 1;
#X connect 7 0 14 0;
#X connect 8 0 16 1;
#X connect 9 0 10 0;
#X connect 10 0 11 1;
#X connect 11 0 2 0;
#X connect 12 0 13 0;
#X connect 12 0 18 0;
#X connect 13 0 8 0;
#X connect 13 0 15 0;
#X connect 14 0 15 2;
#X connect 14 0 12 0;
#X connect 15 0 16 0;
#X connect 16 0 17 0;
#X connect 17 0 18 1;
#X connect 18 0 20 0;
#X connect 18 1 19 0;
#X connect 19 1 20 1;
#X connect 20 0 2 1;
#X connect 20 0 12 1;
#X connect 20 0 22 0;
#X connect 21 0 38 0;
#X connect 21 0 59 0;
#X connect 21 0 65 0;
#X connect 22 0 2 0;
#X connect 23 0 24 0;
#X connect 24 0 33 0;
#X connect 24 0 36 0;
#X connect 25 0 0 0;
#X connect 26 0 31 1;
#X connect 27 0 29 0;
#X connect 28 0 27 0;
#X connect 28 0 31 1;
#X connect 29 0 0 1;
#X connect 29 0 30 0;
#X connect 30 0 21 0;
#X connect 31 0 26 0;
#X connect 31 0 32 0;
#X connect 31 0 36 1;
#X connect 32 0 34 0;
#X connect 33 0 35 1;
#X connect 34 0 33 4;
#X connect 35 0 48 0;
#X connect 35 0 52 0;
#X connect 35 0 1 0;
#X connect 36 0 35 0;
#X connect 37 0 23 0;
#X connect 38 0 25 0;
#X connect 39 0 40 0;
#X connect 40 0 42 0;
#X connect 41 0 40 2;
#X connect 41 0 45 1;
#X connect 42 0 43 0;
#X connect 43 0 45 0;
#X connect 44 0 45 1;
#X connect 45 0 44 0;
#X connect 45 0 27 0;
#X connect 45 0 46 0;
#X connect 46 0 31 1;
#X connect 47 0 54 0;
#X connect 48 0 51 0;
#X connect 48 0 1 0;
#X connect 51 0 50 0;
#X connect 52 0 57 0;
#X connect 53 0 54 0;
#X connect 54 0 39 0;
#X connect 54 0 41 0;
#X connect 55 0 47 0;
#X connect 55 0 43 1;
#X connect 56 0 38 1;
#X connect 57 0 50 0;
#X connect 58 0 57 1;
#X connect 59 0 58 0;
#X connect 60 0 61 0;
#X connect 61 0 62 1;
#X connect 61 0 62 0;
#X connect 62 0 51 0;
#X connect 62 0 48 0;
#X connect 63 0 33 2;
#X connect 64 0 65 1;
#X connect 65 0 63 0;
#X connect 66 0 24 1;
#X connect 67 0 68 0;
#X connect 68 0 11 0;
#X connect 68 0 7 0;
#X connect 68 1 9 0;
#X connect 68 1 5 0;
