#N canvas 0 0 450 300 10;
#X obj 36 -116 sel 0;
#X obj 92 4 vline~;
#X obj 138 -65 pack f f f f;
#X obj 36 -49 pack f f;
#X msg 55 -28 0 \$2;
#X obj 235 -90 f;
#X obj 185 -91 f;
#X obj 129 -93 f;
#X obj 36 -142 inlet;
#X obj 91 29 outlet~;
#X obj 127 -119 inlet;
#X obj 185 -118 inlet;
#X obj 235 -118 inlet;
#X obj 281 -118 inlet;
#X msg 138 -32 0 \, 1 \$2 0 \, \$4 \$3 \$2;
#X connect 0 0 3 0;
#X connect 0 1 2 0;
#X connect 1 0 9 0;
#X connect 2 0 14 0;
#X connect 3 0 4 0;
#X connect 4 0 1 0;
#X connect 5 0 2 3;
#X connect 6 0 2 2;
#X connect 7 0 2 1;
#X connect 8 0 0 0;
#X connect 10 0 7 0;
#X connect 11 0 6 0;
#X connect 12 0 5 0;
#X connect 13 0 3 1;
#X connect 14 0 1 0;
