#N canvas 873 130 624 428 10;
#X obj 7 7 unpack f f;
#X obj 7 58 mtof;
#X obj 7 -27 inlet;
#X obj 23 347 outlet~;
#X obj 22 299 *~;
#X obj 7 119 f;
#X obj 16 -10 bng 15 250 50 0 empty empty empty 17 7 0 10 -262144 -1
-1;
#N canvas 305 251 450 300 vibrato 0;
#X obj 110 35 osc~ 440;
#X obj 118 75 tgl 15 1 empty empty empty 17 7 0 10 -262144 -1 -1 1
1;
#X obj 111 115 snapshot~;
#X obj 110 56 expr~ ($v1*0.5+0.5)*$f2+1.0-0.5*$f2;
#X obj 119 93 metro 1;
#X obj 56 146 inlet;
#X obj 56 202 *;
#X obj 56 226 outlet;
#X obj 56 173 bondo 2;
#X obj 110 137 expr if($f2 == 0 \, 1 \, $f1);
#X obj 229 34 r gate_vibrato_depth;
#X obj 110 12 r gate_vibrato_rate;
#X connect 0 0 3 0;
#X connect 1 0 4 0;
#X connect 2 0 9 0;
#X connect 3 0 2 0;
#X connect 4 0 2 0;
#X connect 5 0 8 0;
#X connect 6 0 7 0;
#X connect 8 0 6 0;
#X connect 8 1 6 1;
#X connect 9 0 8 1;
#X connect 10 0 3 1;
#X connect 11 0 0 0;
#X connect 11 0 9 1;
#X restore 7 99 pd vibrato;
#N canvas 459 344 450 300 sub_oscillator 0;
#X obj 138 47 / 2;
#X obj 24 98 expr~ ($f3 * $v2 + (2 - $f3) * $v1) / 2;
#X obj 138 71 pulsewave 440 0.5;
#X obj 25 26 inlet~;
#X obj 138 20 inlet;
#X obj 25 123 outlet~;
#X obj 255 70 r gate_sub_osc;
#X connect 0 0 2 0;
#X connect 1 0 5 0;
#X connect 2 0 1 1;
#X connect 3 0 1 0;
#X connect 4 0 0 0;
#X connect 6 0 1 2;
#X restore 21 272 pd sub_oscillator;
#N canvas 287 213 619 300 pitch_bend 0;
#X obj 99 26 bendin 1;
#X obj 99 67 *;
#X obj 30 85 pow;
#X obj 62 58 / 12;
#X msg 62 33 1;
#X msg 30 59 2;
#X obj 30 8 loadbang;
#X obj 30 159 pow;
#X obj 30 136 bondo 2;
#X obj 241 34 inlet;
#X obj 289 218 outlet;
#X obj 426 128 *;
#X obj 400 102 bondo 2;
#X obj 99 88 / 64;
#X obj 91 110 - 1;
#X obj 239 61 expr if($f2 == 1 \, $f1 \, 0) \; if($f2 == 0 \, $f1 \,
0);
#X obj 239 148 spigot;
#X obj 413 158 spigot;
#X obj 240 121 *;
#X floatatom 407 50 5 0 0 0 - - -;
#X floatatom 94 143 5 0 0 0 - - -;
#X obj 439 78 r gate_bend_coefficient;
#X obj 279 30 r gate_pitch_bend_type;
#X obj 254 95 r gate_bend_coefficient;
#X obj 108 46 r gate_pitch_bend_max;
#X obj 29 181 s gate_bend_coefficient;
#X connect 0 0 1 0;
#X connect 1 0 13 0;
#X connect 2 0 8 0;
#X connect 3 0 2 1;
#X connect 4 0 3 0;
#X connect 5 0 2 0;
#X connect 6 0 4 0;
#X connect 6 0 5 0;
#X connect 7 0 25 0;
#X connect 8 0 7 0;
#X connect 8 1 7 1;
#X connect 9 0 15 0;
#X connect 11 0 17 0;
#X connect 12 0 11 0;
#X connect 12 1 11 1;
#X connect 13 0 14 0;
#X connect 14 0 8 1;
#X connect 14 0 20 0;
#X connect 15 0 18 0;
#X connect 15 0 16 1;
#X connect 15 1 12 0;
#X connect 15 1 17 1;
#X connect 16 0 10 0;
#X connect 17 0 10 0;
#X connect 18 0 16 0;
#X connect 21 0 12 1;
#X connect 22 0 15 1;
#X connect 22 0 19 0;
#X connect 23 0 18 1;
#X connect 24 0 1 1;
#X restore 7 78 pd pitch_bend;
#N canvas 816 135 450 227 portamento 0;
#X obj 20 22 inlet;
#X obj 50 148 outlet;
#X obj 20 76 pack f f;
#X obj 50 125 line;
#X obj 174 70 f;
#X obj 174 31 bng 15 250 50 0 empty empty empty 17 7 0 10 -262144 -1
-1;
#X msg 87 87 set \$1;
#X obj 156 96 inlet;
#X obj 156 121 != 0;
#X obj 103 151 spigot;
#X obj 189 48 r gate_portamento_pitch;
#X obj 146 174 s gate_portamento_pitch;
#X obj 46 51 r gate_portamento_rate;
#X connect 0 0 5 0;
#X connect 0 0 2 0;
#X connect 2 0 3 0;
#X connect 3 0 1 0;
#X connect 3 0 9 0;
#X connect 4 0 6 0;
#X connect 5 0 4 0;
#X connect 6 0 3 0;
#X connect 7 0 8 0;
#X connect 8 0 9 1;
#X connect 9 0 11 0;
#X connect 10 0 4 1;
#X connect 12 0 2 1;
#X restore 7 37 pd portamento;
#X obj 6 146 AdditiveGateWave;
#X obj 109 146 SubtractiveGateWave;
#X obj 233 37 == 0;
#X obj 267 37 == 1;
#X obj 266 65 tgl 15 0 empty empty empty 17 7 0 10 -262144 -1 -1 0
1;
#X obj 235 63 tgl 15 0 empty empty empty 17 7 0 10 -262144 -1 -1 0
1;
#X obj 8 178 spigot~;
#X obj 62 179 spigot~;
#X obj 235 147 MixGateWave;
#X obj 302 37 == 2;
#X obj 298 65 tgl 15 0 empty empty empty 17 7 0 10 -262144 -1 -1 0
1;
#X obj 121 182 spigot~;
#X obj 231 8 r gate_synthesis_type;
#N canvas 715 215 315 177 gain_envelope 0;
#X obj 26 -152 inlet;
#X obj 26 -49 Envelope~;
#X obj 26 -26 outlet~;
#X obj 77 -75 r gate_gain_release;
#X obj 64 -95 r gate_gain_sustain;
#X obj 51 -114 r gate_gain_decay;
#X obj 38 -133 r gate_gain_attack;
#X connect 0 0 1 0;
#X connect 1 0 2 0;
#X connect 3 0 1 4;
#X connect 4 0 1 3;
#X connect 5 0 1 2;
#X connect 6 0 1 1;
#X restore 406 146 pd gain_envelope;
#X obj 310 148 SwitchWave;
#X obj 331 69 tgl 15 0 empty empty empty 17 7 0 10 -262144 -1 -1 0
1;
#X obj 344 38 == 3;
#X obj 271 177 spigot~;
#N canvas 497 254 450 300 lpf_envelope 0;
#X obj 17 10 inlet;
#X obj 17 175 outlet;
#X obj 17 111 Envelope;
#X obj 28 30 r gate_lpf_attack;
#X obj 39 49 r gate_lpf_decay;
#X obj 50 68 r gate_lpf_sustain;
#X obj 62 88 r gate_lpf_release;
#X obj 17 132 * 127;
#X obj 17 153 mtof;
#X connect 0 0 2 0;
#X connect 2 0 7 0;
#X connect 3 0 2 1;
#X connect 4 0 2 2;
#X connect 5 0 2 3;
#X connect 6 0 2 4;
#X connect 7 0 8 0;
#X connect 8 0 1 0;
#X restore 511 147 pd lpf_envelope;
#X obj 23 324 lop~;
#X connect 0 0 10 0;
#X connect 0 1 24 0;
#X connect 0 1 10 1;
#X connect 0 1 29 0;
#X connect 1 0 9 0;
#X connect 2 0 0 0;
#X connect 2 0 6 0;
#X connect 4 0 30 0;
#X connect 5 0 8 1;
#X connect 5 0 11 0;
#X connect 5 0 12 0;
#X connect 5 0 19 0;
#X connect 5 0 25 0;
#X connect 7 0 5 0;
#X connect 8 0 4 0;
#X connect 9 0 7 0;
#X connect 10 0 1 0;
#X connect 11 0 17 0;
#X connect 12 0 18 0;
#X connect 13 0 16 0;
#X connect 14 0 15 0;
#X connect 15 0 18 1;
#X connect 16 0 17 1;
#X connect 17 1 8 0;
#X connect 18 1 8 0;
#X connect 19 0 22 0;
#X connect 20 0 21 0;
#X connect 21 0 22 1;
#X connect 22 1 8 0;
#X connect 23 0 13 0;
#X connect 23 0 14 0;
#X connect 23 0 20 0;
#X connect 23 0 27 0;
#X connect 24 0 4 1;
#X connect 25 0 28 0;
#X connect 26 0 28 1;
#X connect 27 0 26 0;
#X connect 28 1 8 0;
#X connect 29 0 30 1;
#X connect 30 0 3 0;
